<?xml version="1.0" encoding="UTF-8"?>
<!DOCTYPE svg PUBLIC "-//W3C//DTD SVG 1.1//EN" "http://www.w3.org/Graphics/SVG/1.1/DTD/svg11.dtd">
<svg xmlns="http://www.w3.org/2000/svg" xml:space="preserve" width="11in" height="8.5in" version="1.1" style="shape-rendering:geometricPrecision; text-rendering:geometricPrecision; image-rendering:optimizeQuality; fill-rule:evenodd; clip-rule:evenodd"
viewBox="0 0 11000 8500"
 xmlns:xlink="http://www.w3.org/1999/xlink">
 <defs>
  <style type="text/css">
   <![CDATA[
    .fil1 {fill:none}
    .fil2 {fill:black}
    .fil4 {fill:#080305}
    .fil0 {fill:#579C3B}
    .fil3 {fill:white}
   ]]>
  </style>
   <clipPath id="id0">
    <rect x="1340" y="1892" width="8340" height="4691"/>
   </clipPath>
 </defs>
 <g id="Layer_x0020_1">
  <metadata id=""/>
  <rect class="fil0" x="1255" y="1797" width="8500" height="4786"/>
  <g style="clip-path:url(#id0)">
   <image id="dwanko_run" x="1340" y="1892" width="8340" height="4691" xlink:href="splash.gif"/>
  </g>
  <rect class="fil0" x="1250" y="1853" width="8500" height="38"/>
  <g id="_2762644244848">
   <path class="fil1" d="M4027 4734c29,0 56,-7 80,-21 24,-14 44,-34 57,-57l0 0c14,-24 21,-51 21,-81 0,-29 -7,-57 -21,-80 -14,-23 -34,-43 -58,-57 -24,-14 -51,-22 -79,-22 -27,0 -53,7 -78,22 -24,14 -44,34 -58,58 -14,24 -21,51 -21,81 0,44 15,81 45,112 31,30 67,45 112,45z"/>
   <polygon class="fil1" points="4322,4953 4335,4996 4350,4996 4361,4953 "/>
   <path class="fil1" d="M7108 5013c-152,48 -445,80 -698,100l797 0 -99 -100z"/>
   <path class="fil1" d="M4937 4557c-8,-10 -20,-20 -34,-26 -14,-7 -29,-10 -45,-10 -27,0 -48,8 -66,24 -10,9 -19,22 -26,39l186 0c-5,-12 -9,-21 -15,-28z"/>
   <path class="fil1" d="M4423 4722c16,9 35,14 53,14 19,0 35,-5 51,-14 16,-9 29,-23 38,-39 9,-17 14,-35 14,-53 0,-19 -5,-37 -14,-53 -9,-16 -22,-30 -38,-39 -16,-9 -34,-14 -52,-14 -30,0 -55,10 -74,30 -21,21 -30,46 -30,77 0,20 5,38 14,55 8,16 21,29 38,38z"/>
   <path class="fil1" d="M6126 4720c15,9 34,14 52,14 19,0 36,-5 52,-14 16,-9 28,-21 37,-38 9,-16 14,-35 14,-53 0,-30 -10,-55 -30,-77 -21,-21 -44,-31 -73,-31 -28,0 -52,10 -73,31 -21,21 -30,46 -30,77 0,19 5,37 14,53 9,17 22,30 37,38z"/>
   <path class="fil2" d="M4205 4867c1,0 1,0 2,0 -1,-1 -2,-1 -2,0l-120 0c-1,0 -1,0 -2,0 1,0 1,0 2,0l120 0z"/>
   <path class="fil2" d="M6751 4867c1,0 1,0 2,0 -1,-1 -2,-1 -2,0l-120 0c-1,0 -1,0 -2,0 1,0 1,0 2,0l120 0z"/>
   <g>
    <path class="fil1" d="M6742 4867c-1,0 -1,0 -2,0l-120 0c-1,0 -1,0 -2,0 -9,1 -17,6 -17,12l0 9 0 5 0 12 159 0 0 -12 0 -5 0 -9c0,-7 -8,-12 -17,-12z"/>
    <path class="fil1" d="M5416 4867c-1,0 -2,-1 -5,-1 -3,-1 -8,-1 -12,-2 -5,0 -8,1 -12,2 -1,0 -2,1 -5,1 -8,3 -14,9 -14,16l0 5 0 5 0 15 0 3 60 0 0 -3 0 -15 0 -5 0 -5c0,-7 -6,-13 -14,-16z"/>
    <path class="fil1" d="M5749 4720c15,9 34,14 52,14 19,0 36,-5 52,-14 16,-9 28,-21 37,-38 9,-16 14,-35 14,-53 0,-30 -10,-55 -30,-77 -21,-21 -44,-31 -73,-31 -28,0 -52,10 -73,31 -21,21 -30,46 -30,77 0,19 5,37 14,53 9,17 22,30 37,38z"/>
    <path class="fil1" d="M4027 4734c29,0 56,-7 80,-21 24,-14 44,-34 57,-57l0 0c14,-24 21,-51 21,-81 0,-29 -7,-57 -21,-80 -14,-23 -34,-43 -58,-57 -24,-14 -51,-22 -79,-22 -27,0 -53,7 -78,22 -24,14 -44,34 -58,58 -14,24 -21,51 -21,81 0,44 15,81 45,112 31,30 67,45 112,45z"/>
    <path class="fil1" d="M4937 4557c-8,-10 -20,-20 -34,-26 -14,-7 -29,-10 -45,-10 -27,0 -48,8 -66,24 -10,9 -19,22 -26,39l186 0c-5,-12 -9,-21 -15,-28z"/>
    <path class="fil1" d="M4423 4722c16,9 35,14 53,14 19,0 35,-5 51,-14 16,-9 29,-23 38,-39 9,-17 14,-35 14,-53 0,-19 -5,-37 -14,-53 -9,-16 -22,-30 -38,-39 -16,-9 -34,-14 -52,-14 -30,0 -55,10 -74,30 -21,21 -30,46 -30,77 0,20 5,38 14,55 8,16 21,29 38,38z"/>
    <path class="fil1" d="M6126 4720c15,9 34,14 52,14 19,0 36,-5 52,-14 16,-9 28,-21 37,-38 9,-16 14,-35 14,-53 0,-30 -10,-55 -30,-77 -21,-21 -44,-31 -73,-31 -28,0 -52,10 -73,31 -21,21 -30,46 -30,77 0,19 5,37 14,53 9,17 22,30 37,38z"/>
    <path class="fil1" d="M4213 4889l0 -2 0 -9c0,-6 -8,-10 -17,-12 -1,0 -1,0 -2,0l-120 0c-1,0 -1,0 -2,0 -9,1 -17,6 -17,12l0 9 0 2 0 14 158 0 0 -14 1 0z"/>
    <polygon class="fil1" points="3606,5139 3606,5166 7205,5166 7205,5139 5970,5139 "/>
    <rect class="fil1" x="3606" y="5192" width="3598" height="28"/>
    <path class="fil1" d="M7101 4984c0,-1 1,-2 1,-3 7,-16 23,-60 13,-112 -20,16 -45,34 -76,49 -8,5 -16,8 -24,12 -118,56 -302,106 -547,146 -19,3 -37,6 -56,9 240,-19 513,-49 664,-93 9,-2 17,-5 24,-8z"/>
    <path class="fil1" d="M7098 5013c-152,48 -445,80 -698,100l797 0 -99 -100z"/>
    <path class="fil3" d="M4028 4799c63,0 116,-22 159,-65 43,-43 65,-96 65,-159 0,-63 -22,-116 -65,-159 -43,-43 -98,-65 -161,-65 -39,0 -77,10 -112,30 -34,20 -62,48 -81,82 -20,35 -30,73 -30,114 0,62 22,114 65,157 44,43 98,65 160,65zm-137 -304c14,-24 34,-44 58,-58 24,-14 51,-22 78,-22 28,0 55,7 79,22 24,14 44,34 58,57 14,23 21,51 21,80 0,30 -7,57 -21,81l0 0c-14,24 -33,43 -57,57 -24,14 -51,21 -80,21 -44,0 -80,-15 -110,-45 -31,-30 -45,-67 -45,-112 -1,-29 6,-57 20,-81z"/>
    <path class="fil3" d="M4860 4797c23,0 44,-3 64,-10 19,-7 36,-17 51,-31 15,-14 28,-31 39,-53l6 -12 -2 -1 -70 0c-7,9 -13,17 -19,22 -9,8 -20,14 -33,19 -13,5 -27,7 -39,7 -28,0 -51,-9 -70,-29 -16,-17 -26,-37 -29,-63l267 0 0 -13c0,-43 -13,-80 -36,-109 -33,-42 -77,-63 -131,-63 -53,0 -96,21 -128,62 -24,31 -37,69 -37,109 0,43 15,82 44,116 28,31 70,50 122,50zm-69 -252c19,-16 41,-24 66,-24 16,0 31,3 45,10 14,7 26,15 34,26 6,7 10,16 15,28l-186 0c7,-16 16,-30 26,-39z"/>
    <path class="fil3" d="M5143 4667c0,-38 1,-64 5,-78 5,-20 15,-36 33,-50 16,-14 34,-20 53,-20 17,0 31,5 41,12 10,8 17,20 21,37 2,7 3,24 3,65l0 154 64 0 0 -166c0,-43 -5,-73 -13,-94 -9,-21 -23,-38 -43,-51l0 0c-20,-13 -42,-19 -66,-19 -24,0 -46,6 -67,16 -12,6 -22,14 -31,23l0 -33 -64 0 0 323 64 0 1 -121z"/>
    <polygon class="fil3" points="5475,4789 5543,4789 5543,4427 5681,4427 5681,4362 5337,4362 5337,4427 5475,4427 "/>
    <path class="fil3" d="M5681 4746c31,34 72,51 121,51 49,0 89,-17 121,-51 31,-34 46,-73 46,-117 0,-44 -15,-84 -44,-116 -33,-36 -74,-53 -123,-53 -50,0 -92,19 -124,55 -29,33 -44,72 -44,116 0,43 16,82 48,116zm48 -193c21,-21 44,-31 73,-31 28,0 52,10 73,31 21,21 30,46 30,77 0,19 -5,37 -14,53 -9,16 -22,29 -37,38 -16,9 -34,14 -52,14 -19,0 -36,-5 -52,-14 -15,-9 -28,-22 -37,-38 -9,-16 -14,-35 -14,-53 0,-31 10,-56 30,-77z"/>
    <path class="fil3" d="M6178 4797c49,0 89,-17 121,-51 31,-34 46,-73 46,-117 0,-44 -15,-84 -44,-116 -33,-36 -74,-53 -123,-53 -50,0 -92,19 -123,55 -29,33 -44,72 -44,116 0,44 16,85 46,117 31,33 72,50 121,50zm-73 -244c21,-21 44,-31 73,-31 28,0 52,10 73,31 21,21 30,46 30,77 0,19 -5,37 -14,53 -9,16 -22,29 -37,38 -16,9 -34,14 -52,14 -19,0 -36,-5 -52,-14 -15,-9 -28,-22 -37,-38 -9,-16 -14,-35 -14,-53 0,-31 10,-56 30,-77z"/>
    <path class="fil3" d="M6454 4667c0,-38 1,-64 5,-78 5,-20 15,-36 33,-50 16,-14 34,-20 53,-20 17,0 31,5 41,12 10,8 17,20 21,37 2,7 3,24 3,65l0 154 64 0 0 -166c0,-43 -5,-73 -13,-94 -9,-21 -23,-38 -43,-51l0 0c-20,-13 -42,-19 -66,-19 -24,0 -46,6 -67,16 -12,6 -22,14 -31,23l0 -33 -64 0 0 323 64 0 1 -121z"/>
    <polygon class="fil3" points="6979,4789 6979,4730 6827,4730 6996,4466 6740,4466 6740,4525 6882,4525 6713,4789 "/>
    <path class="fil3" d="M4343 5063l30 -116 0 -189c10,9 23,17 35,23 22,10 45,16 71,16 45,0 85,-16 117,-50 33,-33 49,-73 49,-121 0,-46 -16,-86 -49,-118 -33,-33 -72,-50 -117,-50 -27,0 -50,6 -72,17 -12,6 -23,14 -34,24l0 -34 -64 0 0 481 34 116zm58 -511c20,-21 44,-30 74,-30 19,0 36,5 52,14 16,9 29,22 38,39 9,17 14,35 14,53 0,19 -5,37 -14,53 -9,17 -22,30 -38,39 -16,9 -33,14 -51,14 -19,0 -36,-5 -53,-14 -16,-9 -29,-22 -38,-38 -9,-16 -14,-35 -14,-55 0,-31 9,-56 30,-77zm-38 395l-13 50 -15 0 -14 -50 42 0z"/>
    <path class="fil3" d="M7231 5110l-109 -109c5,-8 46,-88 5,-179 -23,28 -59,53 -106,77l-34 -34 -206 0c-3,-13 -21,-23 -41,-23l-121 0c-21,0 -37,10 -41,23l-1127 0c-3,-17 -26,-30 -51,-31l-2 0 0 0c-27,1 -48,14 -51,31l-903 0 0 26 915 0 0 29 80 0 0 -29 1153 0 0 21 175 0 0 -21 209 0 20 20c-318,146 -1009,200 -1027,202l-2352 0 230 -223 195 0 0 22 175 0 0 -23 14 0 0 -19c0,-15 -19,-28 -42,-28l-120 0c-20,0 -36,9 -41,22l-195 0 -258 249 0 134 3651 0 1 -136zm-1802 -223l0 5 0 15 0 3 -60 0 0 -3 0 -15 0 -5 0 -5c0,-7 6,-13 14,-16 1,0 2,-1 5,-1 3,-1 8,-1 12,-2 5,0 8,1 12,2 1,0 2,1 5,1 8,3 14,9 14,16l0 5zm1330 0l0 5 0 12 -158 0 0 -12 0 -5 0 -9c0,-6 8,-10 17,-12 1,0 1,0 2,0l120 0c1,0 1,0 2,0 9,1 17,6 17,12l0 9 -1 0zm-2705 2l0 -2 0 -9c0,-6 8,-10 17,-12 1,0 1,0 2,0l120 0c1,0 1,0 2,0 9,1 17,6 17,12l0 9 0 2 0 14 -158 0 0 -14 -1 0zm2415 188c245,-41 429,-91 547,-146 8,-3 16,-8 24,-12 30,-16 56,-33 75,-49 10,51 -5,95 -13,112 0,1 -1,2 -1,3 -8,2 -16,5 -24,8 -150,44 -424,74 -664,93 19,-3 37,-7 56,-9zm628 -64l99 100 -797 0c253,-20 546,-52 698,-100zm107 207l-3598 0 0 -28 3598 0 0 28zm0 -53l-3598 0 0 -28 2364 0 1235 0 0 28z"/>
   </g>
  </g>
  <rect class="fil4" x="1250" y="6284" width="8500" height="362"/>
  <g id="_2762652231296">
   <path class="fil0" d="M1618 6403c0,1 0,1 0,3 0,1 0,1 0,1 0,0 0,1 -1,1 -1,0 -1,0 -1,0l-31 0 0 93c0,0 0,1 0,1 0,0 0,0 -1,1 0,0 -1,0 -3,0 -1,0 -1,0 -3,0 -1,0 -3,0 -3,0 -1,0 -1,0 -3,0 -1,0 -1,0 -1,-1 0,0 0,-1 0,-1l0 -92 -31 0c0,0 -1,0 -1,0 0,0 0,0 -1,-1 0,0 0,-1 0,-1 0,-1 0,-1 0,-3 0,-1 0,-1 0,-3 0,-1 0,-1 0,-1 0,0 0,-1 1,-1 1,0 1,0 1,0l75 0c0,0 1,0 1,0 0,0 0,0 1,1 0,0 0,1 0,1 0,0 0,1 0,1z"/>
   <path class="fil0" d="M1697 6502c0,1 0,1 0,0 0,1 -1,1 -1,1 0,0 -1,0 -1,0 -1,0 -1,0 -3,0 -1,0 -3,0 -3,0 -1,0 -1,0 -1,0 0,0 -1,0 -1,-1 0,0 0,0 0,-1l0 -43c0,-4 0,-8 -1,-10 0,-3 -1,-4 -3,-7 -1,-1 -3,-3 -6,-4 -3,-1 -4,-1 -7,-1 -3,0 -7,1 -10,4 -3,3 -7,6 -11,11l0 52c0,0 0,1 0,1 0,0 0,0 -1,1 -1,1 -1,0 -1,0 -1,0 -1,0 -3,0 -1,0 -3,0 -3,0 -1,0 -1,0 -3,0 -1,0 -1,0 -1,-1 0,0 0,0 0,-1l0 -111c0,0 0,-1 0,-1 0,0 0,0 1,-1 0,0 1,0 3,0 1,0 1,0 3,0 1,0 3,0 3,0 0,0 1,0 1,0 0,0 1,0 1,1 0,0 0,1 0,1l0 45c4,-4 8,-7 13,-10 4,-1 8,-3 13,-3 6,0 10,1 13,3 3,1 6,4 8,7 3,3 4,6 4,10 1,4 1,8 1,14l0 46 -3 0z"/>
   <path class="fil0" d="M1738 6403c0,3 0,6 -1,7 -1,1 -3,1 -7,1 -3,0 -6,0 -7,-1 -1,-1 -1,-3 -1,-7 0,-3 0,-6 1,-7 1,-1 3,-1 7,-1 3,0 6,0 7,1 0,1 1,3 1,7zm-3 99c0,1 0,1 0,0 0,1 -1,1 -1,1 0,0 -1,0 -1,0 -1,0 -1,0 -3,0 -1,0 -3,0 -3,0 -1,0 -1,0 -3,0 -1,0 -1,0 -1,-1 0,0 0,0 0,-1l0 -75c0,0 0,-1 0,-1 0,0 0,0 1,-1 1,-1 1,0 3,0 1,0 1,0 3,0 1,0 3,0 3,0 1,0 1,0 1,0 0,0 1,0 1,1 0,0 0,0 0,1l0 77z"/>
   <path class="fil0" d="M1807 6482c0,4 -1,7 -3,10 -1,3 -3,6 -6,7 -3,1 -6,4 -10,4 -4,1 -7,1 -13,1 -3,0 -6,0 -7,0 -3,0 -4,-1 -7,-1 -1,0 -4,-1 -4,-1 -1,0 -3,-1 -3,-1 0,0 -1,-1 -1,-3 0,-1 0,-3 0,-4 0,-1 0,-1 0,-3 0,-1 0,-1 0,-1 0,0 0,-1 1,-1 0,0 0,0 1,0 0,0 1,0 3,1 1,1 3,1 4,3 1,1 4,1 6,3 3,1 6,1 8,1 3,0 4,0 7,-1 1,0 4,-1 6,-3 1,-1 3,-3 3,-4 1,-1 1,-3 1,-6 0,-3 0,-4 -1,-6 -1,-1 -3,-3 -4,-4 -1,-1 -4,-1 -6,-3 -3,-1 -4,-1 -7,-3 -3,-1 -4,-1 -7,-3 -3,-1 -4,-3 -6,-4 -1,-1 -3,-4 -4,-6 -1,-3 -1,-6 -1,-8 0,-3 0,-6 1,-8 1,-3 3,-6 6,-7 3,-1 6,-4 8,-4 3,-1 7,-1 13,-1 1,0 4,0 6,0 1,0 4,1 6,1 1,0 3,1 4,1 1,0 1,1 3,1 0,0 1,1 1,1 0,0 0,1 0,1 0,0 0,1 0,1 0,0 0,1 0,3 0,1 0,1 0,3 0,1 0,1 0,1 0,0 0,1 -1,1 0,0 0,0 -1,0 0,0 -1,0 -3,-1 -1,0 -3,-1 -4,-1 -1,0 -3,-1 -6,-1 -1,0 -4,-1 -7,-1 -3,0 -4,0 -6,1 -1,0 -3,1 -4,3 -1,1 -1,3 -3,3 0,1 -1,3 -1,4 0,3 0,4 1,6 1,1 3,3 4,4 1,1 4,3 6,3 3,1 4,1 7,3 3,1 4,1 7,3 3,1 4,3 6,4 1,1 3,4 4,6 3,1 3,4 3,7z"/>
   <path class="fil0" d="M1958 6450c0,8 -1,17 -3,24 -1,7 -6,13 -10,18 -4,6 -10,8 -15,11 -6,3 -14,4 -21,4 -8,0 -15,-1 -21,-4 -6,-3 -11,-6 -14,-11 -4,-4 -7,-10 -8,-17 -1,-7 -3,-14 -3,-24 0,-8 1,-17 3,-24 1,-7 6,-13 10,-18 4,-6 10,-8 15,-11 6,-3 14,-4 21,-4 8,0 15,1 21,4 6,3 11,6 15,10 4,4 7,10 8,17 0,8 1,15 1,25zm-15 0c0,-6 0,-11 -1,-17 -1,-6 -3,-10 -6,-14 -3,-4 -6,-7 -10,-8 -4,-3 -10,-3 -15,-3 -6,0 -11,1 -15,4 -4,3 -7,6 -10,10 -3,4 -4,8 -6,14 -1,6 -1,11 -1,17 0,7 0,13 1,18 1,6 3,10 6,14 3,4 6,7 10,8 4,3 10,3 15,3 6,0 11,-1 15,-4 4,-3 8,-6 10,-10 3,-4 4,-8 6,-14 1,-6 1,-13 1,-18z"/>
   <path class="fil0" d="M2047 6464c0,7 -1,13 -3,18 -1,6 -4,10 -6,14 -3,4 -6,7 -10,8 -4,1 -8,3 -14,3 -3,0 -4,0 -6,0 -1,0 -4,-1 -6,-1 -1,-1 -4,-3 -6,-4 -1,-1 -4,-3 -6,-6l0 38c0,0 0,1 0,1 0,0 0,0 -1,1 0,0 -1,0 -1,0 0,0 -1,0 -3,0 -1,0 -3,0 -3,0 0,0 -1,0 -3,0 0,0 -1,0 -1,-1 0,0 0,-1 0,-1l0 -105c0,0 0,-1 0,-1 0,0 0,0 1,-1 0,0 1,0 1,0 1,0 1,0 3,0 1,0 3,0 3,0 1,0 1,0 1,0 0,0 1,0 1,1 0,0 0,1 0,1l0 10c3,-3 4,-4 7,-6 3,-1 4,-3 7,-4 3,-1 4,-1 7,-3 3,0 4,-1 7,-1 6,0 10,1 14,3 4,3 7,6 10,8 3,4 4,8 6,13 -1,4 -1,10 -1,15zm-14 1c0,-4 0,-7 -1,-11 0,-4 -1,-7 -3,-10 -1,-3 -3,-6 -6,-7 -3,-1 -6,-3 -8,-3 -1,0 -4,0 -6,1 -1,0 -4,1 -6,3 -1,1 -4,3 -6,4 -1,1 -4,4 -6,7l0 29c4,4 7,8 11,11 4,3 7,4 11,4 3,0 7,-1 8,-3 1,-1 4,-4 6,-7 1,-3 3,-6 3,-10 1,-3 1,-7 1,-10z"/>
   <path class="fil0" d="M2131 6461c0,3 0,4 -1,4 -1,1 -3,1 -4,1l-49 0c0,4 0,8 1,11 1,3 3,6 4,8 1,3 4,4 7,6 3,1 7,1 11,1 4,0 7,0 10,-1 3,0 6,-1 7,-1 1,-1 4,-1 6,-1 1,0 3,-1 3,-1 0,0 1,0 1,0 0,0 0,0 1,1 0,0 0,1 0,1 0,0 0,1 0,3 0,1 0,1 0,1 0,0 0,1 0,1 0,0 0,1 0,1 0,0 0,0 -1,1 0,0 -1,1 -3,1 -1,0 -3,1 -6,1 -3,0 -6,1 -8,1 -3,0 -7,1 -10,1 -6,0 -11,-1 -17,-3 -6,-1 -8,-4 -11,-7 -3,-3 -6,-7 -7,-13 -1,-6 -3,-11 -3,-18 0,-7 1,-13 3,-17 1,-4 4,-10 7,-13 3,-4 7,-7 11,-8 4,-1 10,-3 15,-3 6,0 11,1 15,3 4,1 7,4 10,7 3,3 4,7 6,11 1,4 1,8 1,14l0 3zm-13 -4c0,-7 -1,-13 -4,-17 -3,-4 -8,-6 -15,-6 -3,0 -7,0 -8,1 -3,1 -4,3 -7,6 -1,3 -3,4 -4,7 -1,3 -1,6 -1,8l40 0z"/>
   <path class="fil0" d="M2217 6502c0,1 0,1 0,0 0,1 -1,1 -1,1 0,0 -1,0 -1,0 -1,0 -1,0 -3,0 -1,0 -3,0 -3,0 -1,0 -1,0 -1,0 0,0 -1,0 -1,-1 0,0 0,0 0,-1l0 -43c0,-4 0,-8 -1,-10 0,-3 -1,-4 -3,-7 -1,-1 -3,-3 -6,-4 -3,-1 -4,-1 -7,-1 -3,0 -7,1 -10,4 -3,3 -7,6 -11,11l0 52c0,0 0,1 0,1 0,0 0,0 -1,1 -1,1 -1,0 -1,0 -1,0 -1,0 -3,0 -1,0 -3,0 -3,0 -1,0 -1,0 -3,0 -1,0 -1,0 -1,-1 0,0 0,0 0,-1l0 -75c0,0 0,-1 0,-1 0,0 0,0 1,-1 0,0 1,0 1,0 1,0 1,0 3,0 1,0 3,0 3,0 1,0 1,0 1,0 0,0 1,0 1,1 0,0 0,0 0,1l0 10c4,-4 8,-8 13,-10 4,-1 8,-3 13,-3 6,0 10,1 13,3 3,1 6,4 8,7 3,3 4,6 4,10 1,4 1,8 1,14l0 45 -1 0z"/>
   <path class="fil0" d="M2340 6474c0,6 -1,10 -3,14 -1,4 -4,7 -8,10 -4,3 -7,4 -11,6 -4,1 -10,1 -14,1 -4,0 -7,0 -10,-1 -3,0 -6,-1 -8,-3 -3,-1 -4,-1 -6,-3 -1,-1 -3,-1 -3,-3 0,0 -1,-1 -1,-3 0,-1 0,-3 0,-4 0,-1 0,-3 0,-3 0,-1 0,-1 0,-1 0,0 0,-1 1,-1 0,0 1,0 1,0 1,0 1,0 3,1 1,1 3,1 6,3 3,1 6,3 8,3 3,1 7,1 11,1 3,0 6,0 8,-1 3,-1 4,-1 7,-4 1,-1 3,-3 4,-6 1,-3 1,-4 1,-7 0,-3 0,-6 -1,-8 -1,-3 -3,-4 -6,-6 -3,-1 -4,-3 -8,-4 -3,-1 -6,-3 -8,-4 -3,-1 -6,-3 -8,-4 -3,-1 -6,-4 -8,-6 -3,-3 -4,-6 -6,-8 -1,-3 -3,-7 -3,-11 0,-4 1,-8 3,-13 1,-4 4,-7 7,-8 3,-3 7,-4 10,-6 4,-1 8,-1 13,-1 3,0 4,0 7,0 3,0 4,1 7,1 3,0 4,1 6,3 1,1 3,1 3,1 0,0 1,1 1,1 0,0 0,0 0,1 0,0 0,1 0,1 0,0 0,1 0,3 0,1 0,1 0,3 0,1 0,1 0,1 0,0 0,1 -1,1 0,0 0,0 -1,0 0,0 -1,0 -3,-1 -1,-1 -3,-1 -4,-3 -1,-1 -4,-1 -7,-3 -3,-1 -6,-1 -8,-1 -3,0 -6,0 -8,1 -3,1 -4,1 -6,3 -1,1 -3,3 -3,4 0,1 -1,4 -1,6 0,3 0,6 1,8 1,3 3,4 6,6 3,1 6,3 8,4 3,1 6,3 8,4 3,1 6,3 8,4 3,1 6,4 8,6 3,3 4,6 6,8 1,10 3,13 3,17z"/>
   <path class="fil0" d="M2427 6464c0,6 -1,11 -3,17 -1,6 -4,10 -7,14 -3,4 -7,7 -13,8 -4,1 -10,3 -17,3 -6,0 -11,-1 -17,-3 -4,-1 -8,-4 -11,-8 -3,-4 -6,-8 -7,-13 -1,-6 -3,-11 -3,-17 0,-6 1,-11 3,-17 1,-6 4,-10 7,-14 3,-4 7,-7 13,-8 4,-1 10,-3 17,-3 6,0 11,1 17,3 4,1 8,4 11,8 3,4 6,8 7,13 1,6 3,11 3,17zm-14 1c0,-4 0,-8 -1,-11 -1,-4 -1,-7 -4,-10 -1,-3 -4,-4 -7,-7 -3,-3 -7,-3 -11,-3 -4,0 -7,1 -11,3 -3,1 -6,4 -7,6 -1,1 -3,6 -4,10 -1,4 -1,7 -1,11 0,4 0,8 1,11 1,3 1,7 4,10 1,3 4,4 7,7 3,3 7,3 11,3 4,0 7,-1 11,-3 3,-1 6,-3 7,-6 1,-3 3,-6 4,-10 1,-3 1,-7 1,-11z"/>
   <path class="fil0" d="M2511 6502c0,1 0,1 0,0 0,1 -1,1 -1,1 0,0 -1,0 -1,0 -1,0 -1,0 -3,0 -1,0 -3,0 -3,0 -1,0 -1,0 -1,0 0,0 -1,0 -1,-1 0,0 0,0 0,-1l0 -10c-4,4 -8,8 -13,10 -4,1 -8,3 -13,3 -6,0 -10,-1 -13,-3 -3,-1 -6,-4 -8,-7 -3,-3 -4,-6 -4,-10 -1,-4 -1,-8 -1,-14l0 -46c0,0 0,-1 0,-1 0,0 0,0 1,-1 1,-1 1,0 3,0 1,0 1,0 3,0 1,0 3,0 3,0 1,0 1,0 3,0 0,0 1,0 1,1 0,0 0,0 0,1l0 43c0,4 0,8 1,11 0,3 1,4 3,7 1,1 3,3 6,4 3,1 4,1 7,1 3,0 7,-1 10,-4 3,-3 7,-6 11,-11l0 -52c0,0 0,-1 0,-1 0,0 0,0 1,-1 1,-1 1,0 3,0 1,0 1,0 3,0 1,0 3,0 3,0 1,0 1,0 1,0 0,0 1,0 1,1 0,0 0,0 0,1l0 78 -1 0z"/>
   <path class="fil0" d="M2581 6432c0,1 0,3 0,3 0,1 0,1 0,1 0,0 0,1 0,1 0,0 0,0 -1,0 -1,0 -1,0 -1,0 0,0 -1,0 -3,-1 -1,-1 -1,0 -3,-1 -1,0 -1,0 -3,0 -1,0 -3,0 -4,1 -1,0 -3,1 -4,3 -1,1 -3,3 -4,6 -1,3 -3,4 -6,8l0 49c0,0 0,1 0,1 0,0 0,0 -1,1 -1,1 -1,0 -1,0 -1,0 -1,0 -3,0 -1,0 -3,0 -3,0 -1,0 -1,0 -3,0 -1,0 -1,0 -1,-1 0,0 0,0 0,-1l0 -75c0,0 0,-1 0,-1 0,0 0,0 1,-1 0,0 1,0 1,0 1,0 1,0 3,0 1,0 3,0 3,0 1,0 1,0 1,0 0,0 1,0 1,1 0,0 0,0 0,1l0 11c1,-3 4,-6 6,-7 1,-1 4,-3 6,-4 1,-1 3,-1 4,-3 1,0 3,0 4,0 1,0 1,0 3,0 1,0 1,0 3,0 1,0 1,0 3,1 1,0 1,0 1,1 0,0 0,0 0,1 0,0 0,0 0,1 0,0 0,1 0,1 0,0 1,0 1,1z"/>
   <path class="fil0" d="M2648 6491c0,1 0,1 0,3 0,1 0,1 0,1 0,0 0,1 0,1 0,0 0,1 -1,1 0,0 -1,1 -4,3 -1,1 -4,1 -6,3 -1,1 -4,1 -7,1 -3,0 -6,1 -7,1 -6,0 -10,-1 -14,-3 -4,-1 -7,-4 -10,-8 -3,-3 -6,-7 -7,-13 -1,-6 -3,-11 -3,-17 0,-7 1,-14 3,-20 1,-6 4,-10 7,-13 3,-3 7,-6 11,-7 4,-1 8,-3 14,-3 3,0 4,0 7,0 3,0 4,1 6,1 1,1 4,1 6,3 1,1 3,1 3,3 0,0 1,1 1,1 0,0 0,1 0,1 0,0 0,1 0,1 0,0 0,1 0,3 0,3 0,4 -1,4 0,1 -1,1 -1,1 -1,0 -1,0 -3,-1 -1,-1 -3,-1 -4,-3 -1,-1 -4,-3 -6,-3 -3,-1 -6,-1 -8,-1 -7,0 -11,3 -15,7 -4,6 -6,13 -6,22 0,4 0,8 1,13 1,4 3,7 4,10 1,3 4,4 7,6 3,1 6,1 8,1 3,0 6,0 8,-1 3,-1 4,-3 6,-3 1,-1 3,-3 4,-3 1,0 3,-1 3,-1 0,0 1,0 1,0 0,0 0,0 1,1 0,0 0,1 0,1 0,0 1,3 1,3z"/>
   <path class="fil0" d="M2730 6461c0,3 0,4 -1,4 -1,1 -3,1 -4,1l-49 0c0,4 0,8 1,11 1,3 3,6 4,8 1,3 4,4 7,6 3,1 7,1 11,1 4,0 7,0 10,-1 3,0 6,-1 7,-1 1,-1 4,-1 6,-1 1,0 3,-1 3,-1 0,0 1,0 1,0 0,0 0,0 1,1 0,0 0,1 0,1 0,0 0,1 0,3 0,1 0,1 0,1 0,0 0,1 0,1 0,0 0,1 0,1 0,0 0,0 -1,1 0,0 -1,1 -3,1 -1,0 -3,1 -6,1 -3,0 -6,1 -8,1 -3,0 -7,1 -10,1 -6,0 -11,-1 -17,-3 -6,-1 -8,-4 -11,-7 -3,-3 -6,-7 -7,-13 -1,-6 -3,-11 -3,-18 0,-7 1,-13 3,-17 1,-4 4,-10 7,-13 3,-4 7,-7 11,-8 4,-1 10,-3 15,-3 6,0 11,1 15,3 4,1 7,4 10,7 3,3 4,7 6,11 1,4 1,8 1,14l0 3zm-14 -4c0,-7 -1,-13 -4,-17 -3,-4 -8,-6 -15,-6 -3,0 -7,0 -8,1 -3,1 -4,3 -7,6 -1,3 -3,4 -4,7 -1,3 -1,6 -1,8l40 0z"/>
   <path class="fil0" d="M2857 6428c0,6 -1,10 -3,14 -1,4 -4,8 -7,11 -3,3 -7,6 -13,7 -4,1 -11,3 -17,3l-13 0 0 39c0,0 0,1 0,1 0,0 0,0 -1,1 -1,1 -1,0 -3,0 -1,0 -1,0 -3,0 -1,0 -3,0 -3,0 -1,0 -1,0 -3,0 -1,0 -1,0 -1,-1 0,0 0,-1 0,-1l0 -99c0,-3 0,-4 1,-4 1,-1 3,-1 4,-1l22 0c3,0 4,0 7,0 3,0 4,0 7,1 3,0 6,1 8,4 3,3 6,4 8,7 3,3 4,6 4,8 1,3 3,7 3,10zm-15 1c0,-4 -1,-8 -3,-11 -1,-3 -4,-6 -6,-7 -3,-1 -6,-3 -7,-3 -3,0 -6,0 -7,0l-13 0 0 43 13 0c4,0 8,0 11,-1 3,-1 6,-3 7,-4 1,-1 3,-4 4,-7 0,-3 0,-6 0,-10z"/>
   <path class="fil0" d="M2921 6432c0,1 0,3 0,3 0,1 0,1 0,1 0,0 0,1 0,1 0,0 0,0 -1,0 -1,0 -1,0 -1,0 0,0 -1,0 -3,-1 -1,-1 -1,0 -3,-1 -1,0 -1,0 -3,0 -1,0 -3,0 -4,1 -1,0 -3,1 -4,3 -1,1 -3,3 -4,6 -1,3 -3,4 -6,8l0 49c0,0 0,1 0,1 0,0 0,0 -1,1 -1,1 -1,0 -1,0 -1,0 -1,0 -3,0 -1,0 -3,0 -3,0 -1,0 -1,0 -3,0 -1,0 -1,0 -1,-1 0,0 0,0 0,-1l0 -75c0,0 0,-1 0,-1 0,0 0,0 1,-1 0,0 1,0 1,0 1,0 1,0 3,0 1,0 3,0 3,0 1,0 1,0 1,0 0,0 1,0 1,1 0,0 0,0 0,1l0 11c1,-3 4,-6 6,-7 1,-1 4,-3 6,-4 1,-1 3,-1 4,-3 1,0 3,0 4,0 1,0 1,0 3,0 1,0 1,0 3,0 1,0 1,0 3,1 1,0 1,0 1,1 0,0 0,0 0,1 0,0 0,0 0,1 0,0 0,1 0,1 0,0 1,0 1,1z"/>
   <path class="fil0" d="M3003 6464c0,6 -1,11 -3,17 -1,6 -4,10 -7,14 -3,4 -7,7 -13,8 -4,1 -10,3 -17,3 -6,0 -11,-1 -17,-3 -4,-1 -8,-4 -11,-8 -3,-4 -6,-8 -7,-13 -1,-6 -3,-11 -3,-17 0,-6 1,-11 3,-17 1,-6 4,-10 7,-14 3,-4 7,-7 13,-8 4,-1 10,-3 17,-3 6,0 11,1 17,3 4,1 8,4 11,8 3,4 6,8 7,13 1,6 3,11 3,17zm-15 1c0,-4 0,-8 -1,-11 -1,-4 -1,-7 -4,-10 -1,-3 -4,-4 -7,-7 -3,-3 -7,-3 -11,-3 -4,0 -7,1 -11,3 -3,1 -6,4 -7,6 -1,1 -3,6 -4,10 -1,4 -1,7 -1,11 0,4 0,8 1,11 1,3 1,7 4,10 1,3 4,4 7,7 3,3 7,3 11,3 4,0 7,-1 11,-3 3,-1 6,-3 7,-6 1,-3 3,-6 4,-10 1,-3 1,-7 1,-11z"/>
   <path class="fil0" d="M3085 6431c0,1 0,3 -1,4 -1,1 -1,1 -1,1l-11 0c1,1 3,4 4,7 1,3 1,6 1,7 0,4 0,8 -1,11 -1,3 -3,6 -6,8 -3,3 -6,4 -10,6 -4,1 -7,1 -11,1 -3,0 -6,0 -8,-1 -3,-1 -4,-1 -7,-3 -1,1 -1,3 -3,3 0,1 -1,3 -1,4 0,1 1,4 3,4 1,1 4,1 7,1l20 1c4,0 7,0 10,1 3,1 6,3 8,4 3,1 4,4 6,6 1,1 1,6 1,8 0,3 -1,7 -3,10 -1,3 -4,6 -7,8 -3,3 -7,4 -11,6 -4,1 -10,1 -17,1 -6,0 -11,0 -15,-1 -4,-1 -8,-3 -10,-4 -3,-1 -4,-4 -6,-7 -1,-3 -1,-6 -1,-8 0,-1 0,-4 0,-6 0,-1 1,-3 1,-6 0,-3 1,-3 3,-4 1,-1 3,-3 4,-4 -3,-1 -4,-3 -6,-6 -1,-3 -1,-4 -1,-7 0,-3 0,-7 1,-8 1,-3 3,-6 6,-7 -1,-1 -3,-4 -4,-7 -1,-3 -1,-6 -1,-10 0,-4 1,-8 3,-11 1,-3 3,-6 6,-8 3,-3 6,-4 10,-6 4,-1 7,-1 11,-1 3,0 4,0 7,0 1,0 4,0 6,1l22 0c1,0 1,0 3,1 1,6 1,7 1,8zm-14 79c0,-3 -1,-6 -4,-7 -3,-1 -6,-3 -11,-3l-20 0c-1,1 -3,3 -4,4 -1,1 -1,3 -3,4 0,1 -1,3 -1,3 0,1 0,3 0,3 0,4 1,7 6,8 4,1 8,3 15,3 4,0 7,0 10,-1 3,-1 6,-1 7,-3 1,-1 3,-3 4,-4 0,-3 1,-6 1,-7zm-7 -60c0,-6 -1,-10 -4,-13 -3,-3 -7,-4 -13,-4 -3,0 -6,0 -7,1 -1,1 -4,3 -6,4 -1,1 -3,3 -3,6 0,1 -1,4 -1,7 0,6 1,8 4,11 3,3 7,4 11,4 3,0 6,0 7,-1 1,-1 4,-1 6,-4 1,-3 3,-3 3,-6 1,-1 3,-3 3,-6z"/>
   <path class="fil0" d="M3146 6432c0,1 0,3 0,3 0,1 0,1 0,1 0,0 0,1 0,1 0,0 0,0 -1,0 -1,0 -1,0 -1,0 0,0 -1,0 -3,-1 -1,-1 -1,0 -3,-1 -1,0 -1,0 -3,0 -1,0 -3,0 -4,1 -1,0 -3,1 -4,3 -1,1 -3,3 -4,6 -1,3 -3,4 -6,8l0 49c0,0 0,1 0,1 0,0 0,0 -1,1 -1,1 -1,0 -1,0 -1,0 -1,0 -3,0 -1,0 -3,0 -3,0 -1,0 -1,0 -3,0 -1,0 -1,0 -1,-1 0,0 0,0 0,-1l0 -75c0,0 0,-1 0,-1 0,0 0,0 1,-1 0,0 1,0 1,0 1,0 1,0 3,0 1,0 3,0 3,0 1,0 1,0 1,0 0,0 1,0 1,1 0,0 0,0 0,1l0 11c1,-3 4,-6 6,-7 1,-1 4,-3 6,-4 1,-1 3,-1 4,-3 1,0 3,0 4,0 1,0 1,0 3,0 1,0 1,0 3,0 1,0 1,0 3,1 1,0 1,0 1,1 0,0 0,0 0,1 0,0 0,0 0,1 0,0 0,1 0,1 0,0 1,0 1,1z"/>
   <path class="fil0" d="M3215 6503c0,0 0,1 0,1 0,0 -1,0 -1,1 0,1 -1,0 -3,0 -1,0 -3,0 -3,0 0,0 -1,0 -1,-1 0,0 0,-1 0,-1l0 -7c-3,4 -7,6 -11,8 -4,1 -8,3 -13,3 -4,0 -7,0 -11,-1 -4,-1 -6,-3 -8,-4 -3,-1 -4,-4 -6,-7 -1,-3 -1,-6 -1,-10 0,-4 1,-8 3,-11 1,-3 4,-6 7,-8 3,-1 7,-4 11,-4 4,-1 10,-1 15,-1l10 0 0 -6c0,-3 0,-6 -1,-7 0,-3 -1,-4 -3,-6 -1,-1 -3,-3 -6,-3 -3,-1 -4,-1 -8,-1 -3,0 -7,0 -10,1 -3,1 -6,1 -7,3 -1,1 -4,1 -6,3 -1,1 -3,1 -3,1 0,0 -1,0 -1,0 0,0 0,0 -1,-1 0,0 0,-1 0,-1 0,0 0,-1 0,-3 0,-1 0,-3 0,-3 0,-1 0,-1 1,-3 1,-1 1,-1 4,-3 1,-1 4,-1 7,-3 3,-1 6,-1 8,-1 3,0 6,-1 8,-1 6,0 10,0 14,1 4,1 7,3 10,6 3,3 4,6 6,8 1,4 1,7 1,13l0 49 -1 0zm-14 -35l-11 0c-4,0 -7,0 -10,1 -3,0 -6,1 -7,3 -1,1 -3,3 -4,4 -1,1 -1,4 -1,6 0,4 1,7 4,10 3,3 6,3 10,3 4,0 7,-1 10,-3 3,-1 7,-4 10,-8l0 -15z"/>
   <path class="fil0" d="M3351 6502c0,1 -1,1 0,0 0,1 -1,1 -1,1 0,0 -1,0 -1,0 -1,0 -1,0 -3,0 -1,0 -3,0 -3,0 -1,0 -1,0 -3,0 -1,0 -1,0 -1,-1 0,0 0,0 0,-1l0 -46c0,-3 0,-6 -1,-8 0,-3 -1,-4 -3,-7 -1,-1 -3,-3 -4,-4 -1,-1 -4,-1 -7,-1 -3,0 -7,1 -10,4 -3,3 -7,6 -11,11l0 52c0,0 0,1 0,1 0,0 0,0 -1,1 -1,1 -1,0 -3,0 -1,0 -1,0 -3,0 -1,0 -3,0 -3,0 -1,0 -1,0 -3,0 -1,0 -1,0 -1,-1 0,0 0,0 0,-1l0 -46c0,-3 0,-6 -1,-8 0,-3 -1,-4 -3,-7 -1,-1 -3,-3 -4,-4 -1,-1 -4,-1 -7,-1 -3,0 -7,1 -10,4 -3,3 -7,6 -11,11l0 52c0,0 0,1 0,1 0,0 0,0 -1,1 -1,1 -1,0 -1,0 -1,0 -1,0 -3,0 -1,0 -3,0 -3,0 -1,0 -1,0 -3,0 -1,0 -1,0 -1,-1 0,0 0,0 0,-1l0 -75c0,0 0,-1 0,-1 0,0 0,0 1,-1 0,0 1,0 1,0 1,0 1,0 3,0 1,0 3,0 3,0 1,0 1,0 1,0 0,0 1,0 1,1 0,0 0,0 0,1l0 10c4,-4 8,-8 13,-10 4,-3 8,-3 13,-3 3,0 6,0 8,1 3,1 4,1 7,3 1,1 4,3 4,4 1,1 3,4 3,6 3,-3 4,-6 7,-7 3,-1 4,-3 7,-4 3,-1 4,-1 6,-3 1,0 4,-1 6,-1 4,0 8,1 13,3 4,1 6,4 8,7 1,3 3,6 4,10 1,4 1,8 1,13l0 49 1 0z"/>
   <path class="fil0" d="M3429 6403c0,3 0,6 -1,7 -1,1 -3,1 -7,1 -3,0 -6,0 -7,-1 -1,-1 -1,-3 -1,-7 0,-3 0,-6 1,-7 1,-1 3,-1 7,-1 3,0 6,0 7,1 1,1 1,3 1,7zm-1 99c0,1 0,1 0,0 0,1 -1,1 -1,1 0,0 -1,0 -1,0 -1,0 -1,0 -3,0 -1,0 -3,0 -3,0 -1,0 -1,0 -3,0 -1,0 -1,0 -1,-1 0,0 0,0 0,-1l0 -75c0,0 0,-1 0,-1 0,0 0,0 1,-1 1,-1 1,0 3,0 1,0 1,0 3,0 1,0 3,0 3,0 1,0 1,0 1,0 0,0 1,0 1,1 0,0 0,0 0,1l0 77z"/>
   <path class="fil0" d="M3500 6482c0,4 -1,7 -3,10 -1,3 -3,6 -6,7 -3,1 -6,4 -10,4 -4,1 -7,1 -13,1 -3,0 -6,0 -7,0 -3,0 -4,-1 -7,-1 -1,0 -4,-1 -4,-1 -1,0 -3,-1 -3,-1 0,0 -1,-1 -1,-3 0,-1 0,-3 0,-4 0,-1 0,-1 0,-3 0,-1 0,-1 0,-1 0,0 0,-1 1,-1 0,0 0,0 1,0 0,0 1,0 3,1 1,1 3,1 4,3 1,1 4,1 6,3 3,1 6,1 8,1 3,0 4,0 7,-1 1,0 4,-1 6,-3 1,-1 3,-3 3,-4 1,-1 1,-3 1,-6 0,-3 0,-4 -1,-6 -1,-1 -3,-3 -4,-4 -1,-1 -4,-1 -6,-3 -3,-1 -4,-1 -7,-3 -3,-1 -4,-1 -7,-3 -3,-1 -4,-3 -6,-4 -1,-1 -3,-4 -4,-6 -1,-3 -1,-6 -1,-8 0,-3 0,-6 1,-8 1,-3 3,-6 6,-7 3,-1 6,-4 8,-4 3,-1 7,-1 13,-1 1,0 4,0 6,0 1,0 4,1 6,1 1,0 3,1 4,1 1,0 1,1 3,1 0,0 1,1 1,1 0,0 0,1 0,1 0,0 0,1 0,1 0,0 0,1 0,3 0,1 0,1 0,3 0,1 0,1 0,1 0,0 0,1 -1,1 0,0 0,0 -1,0 0,0 -1,0 -3,-1 -1,0 -3,-1 -4,-1 -1,0 -3,-1 -6,-1 -1,0 -4,-1 -7,-1 -3,0 -4,0 -6,1 -1,0 -3,1 -4,3 -1,1 -1,3 -3,3 0,1 -1,3 -1,4 0,3 0,4 1,6 1,1 3,3 4,4 1,1 4,3 6,3 3,1 4,1 7,3 3,1 4,1 7,3 3,1 4,3 6,4 1,1 3,4 4,6 1,1 3,4 3,7z"/>
   <path class="fil0" d="M3622 6502c0,1 0,1 0,0 0,1 -1,1 -1,1 0,0 -1,0 -1,0 -1,0 -1,0 -3,0 -1,0 -3,0 -3,0 -1,0 -1,0 -1,0 0,0 -1,0 -1,-1 0,0 0,-1 0,-1l0 -10c-4,4 -8,7 -13,10 -4,3 -8,4 -14,4 -6,0 -10,-1 -14,-3 -4,-3 -7,-6 -10,-8 -3,-4 -4,-8 -6,-13 -1,-4 -1,-10 -1,-15 0,-7 0,-13 1,-17 1,-6 3,-10 6,-14 3,-4 6,-7 10,-8 4,-1 8,-3 14,-3 4,0 8,1 13,3 4,1 7,4 11,8l0 -43c0,0 0,-1 0,-1 0,0 0,0 1,-1 1,-1 1,0 3,0 1,0 1,0 3,0 1,0 3,0 3,0 1,0 1,0 1,0 0,0 1,0 1,1 0,0 0,1 0,1l0 110 1 0zm-14 -52c-4,-4 -7,-8 -11,-11 -3,-3 -7,-4 -11,-4 -4,0 -7,1 -8,3 -1,1 -4,4 -6,7 -1,3 -3,6 -3,10 0,4 -1,7 -1,11 0,4 0,7 1,11 0,4 1,7 3,10 1,3 3,6 6,7 3,1 6,3 8,3 1,0 4,0 6,-1 1,-1 3,-1 6,-3 1,-1 4,-3 6,-4 1,-1 4,-4 6,-7l0 -31z"/>
   <path class="fil0" d="M3711 6461c0,3 0,4 -1,4 -1,1 -3,1 -4,1l-49 0c0,4 0,8 1,11 1,3 3,6 4,8 1,3 4,4 7,6 3,1 7,1 11,1 4,0 7,0 10,-1 3,0 6,-1 7,-1 1,-1 4,-1 6,-1 1,0 3,-1 3,-1 0,0 1,0 1,0 0,0 0,0 1,1 0,0 0,1 0,1 0,0 0,1 0,3 0,1 0,1 0,1 0,0 0,1 0,1 0,0 0,1 0,1 0,0 0,0 -1,1 0,0 -1,1 -3,1 -1,0 -3,1 -6,1 -3,0 -6,1 -8,1 -3,0 -7,1 -10,1 -6,0 -11,-1 -17,-3 -6,-1 -8,-4 -11,-7 -3,-3 -6,-7 -7,-13 -1,-6 -3,-11 -3,-18 0,-7 1,-13 3,-17 1,-4 4,-10 7,-13 3,-4 7,-7 11,-8 4,-1 10,-3 15,-3 6,0 11,1 15,3 4,1 7,4 10,7 3,3 4,7 6,11 1,4 1,8 1,14l0 3zm-14 -4c0,-7 -1,-13 -4,-17 -3,-4 -8,-6 -15,-6 -3,0 -7,0 -8,1 -3,1 -4,3 -7,6 -1,3 -3,4 -4,7 -1,3 -1,6 -1,8l40 0z"/>
   <path class="fil0" d="M3793 6428c0,0 0,0 0,0 0,1 0,1 0,1 0,0 0,0 0,1 0,0 0,0 0,1l-25 71c0,0 0,1 -1,1 0,0 -1,0 -1,1 0,1 -1,0 -3,0 -1,0 -3,0 -4,0 -1,0 -3,0 -4,0 -1,0 -1,0 -3,0 -1,0 -1,0 -1,-1 0,0 0,-1 -1,-1l-25 -71c0,0 0,-1 0,-1 0,0 0,-1 0,-1 0,0 0,0 0,0 0,0 0,-1 0,-1 0,0 0,0 1,-1 0,0 1,0 1,0 1,0 1,0 3,0 1,0 3,0 4,0 1,0 1,0 3,0 0,0 1,0 1,1 0,0 0,1 1,1l21 61 0 1 0 -1 21 -61c0,0 0,-1 0,-1 0,0 0,0 1,-1 1,-1 1,0 3,0 1,0 3,0 4,0 1,0 3,0 3,0 1,0 1,0 1,0 0,0 -1,0 0,1 -1,-1 0,-1 0,0z"/>
   <path class="fil0" d="M3870 6461c0,3 0,4 -1,4 -1,1 -3,1 -4,1l-49 0c0,4 0,8 1,11 1,3 3,6 4,8 1,3 4,4 7,6 3,1 7,1 11,1 4,0 7,0 10,-1 3,0 6,-1 7,-1 1,-1 4,-1 6,-1 1,0 3,-1 3,-1 0,0 1,0 1,0 0,0 0,0 1,1 0,0 0,1 0,1 0,0 0,1 0,3 0,1 0,1 0,1 0,0 0,1 0,1 0,0 0,1 0,1 0,0 0,0 -1,1 0,0 -1,1 -3,1 -1,0 -3,1 -6,1 -3,0 -6,1 -8,1 -3,0 -7,1 -10,1 -6,0 -11,-1 -17,-3 -6,-1 -8,-4 -11,-7 -3,-3 -6,-7 -7,-13 -1,-6 -3,-11 -3,-18 0,-7 1,-13 3,-17 1,-4 4,-10 7,-13 3,-4 7,-7 11,-8 4,-1 10,-3 15,-3 6,0 11,1 15,3 4,1 7,4 10,7 3,3 4,7 6,11 1,4 1,8 1,14l0 3zm-14 -4c0,-7 -1,-13 -4,-17 -3,-4 -8,-6 -15,-6 -3,0 -7,0 -8,1 -3,1 -4,3 -7,6 -1,3 -3,4 -4,7 -1,3 -1,6 -1,8l40 0z"/>
   <path class="fil0" d="M3905 6502c0,1 0,1 0,0 0,1 -1,1 -1,1 0,0 -1,0 -1,0 -1,0 -1,0 -3,0 -1,0 -3,0 -3,0 -1,0 -1,0 -3,0 -1,0 -1,0 -1,-1 0,0 0,0 0,-1l0 -111c0,0 0,-1 0,-1 0,0 0,0 1,-1 0,0 1,0 3,0 1,0 1,0 3,0 1,0 3,0 3,0 0,0 1,0 1,0 0,0 1,0 1,1 0,0 0,1 0,1l0 113z"/>
   <path class="fil0" d="M3999 6464c0,6 -1,11 -3,17 -1,6 -4,10 -7,14 -3,4 -7,7 -13,8 -4,1 -10,3 -17,3 -6,0 -11,-1 -17,-3 -4,-1 -8,-4 -11,-8 -3,-4 -6,-8 -7,-13 -1,-6 -3,-11 -3,-17 0,-6 1,-11 3,-17 1,-6 4,-10 7,-14 3,-4 7,-7 13,-8 4,-1 10,-3 17,-3 6,0 11,1 17,3 4,1 8,4 11,8 3,4 6,8 7,13 3,6 3,11 3,17zm-14 1c0,-4 0,-8 -1,-11 -1,-4 -1,-7 -4,-10 -1,-3 -4,-4 -7,-7 -3,-3 -7,-3 -11,-3 -4,0 -7,1 -11,3 -3,1 -6,4 -7,6 -1,1 -3,6 -4,10 -1,4 -1,7 -1,11 0,4 0,8 1,11 1,3 1,7 4,10 1,3 4,4 7,7 3,3 7,3 11,3 4,0 7,-1 11,-3 3,-1 6,-3 7,-6 1,-3 3,-6 4,-10 1,-3 1,-7 1,-11z"/>
   <path class="fil0" d="M4088 6464c0,7 -1,13 -3,18 -1,6 -4,10 -6,14 -3,4 -6,7 -10,8 -4,1 -8,3 -14,3 -3,0 -4,0 -6,0 -1,0 -4,-1 -6,-1 -1,-1 -4,-3 -6,-4 -1,-1 -4,-3 -6,-6l0 38c0,0 0,1 0,1 0,0 0,0 -1,1 0,0 -1,0 -1,0 0,0 -1,0 -3,0 -1,0 -3,0 -3,0 0,0 -1,0 -3,0 0,0 -1,0 -1,-1 0,0 0,-1 0,-1l0 -105c0,0 0,-1 0,-1 0,0 0,0 1,-1 0,0 1,0 1,0 1,0 1,0 3,0 1,0 3,0 3,0 1,0 1,0 1,0 0,0 1,0 1,1 0,0 0,1 0,1l0 10c3,-3 4,-4 7,-6 3,-1 4,-3 7,-4 3,-1 4,-1 7,-3 3,0 4,-1 7,-1 6,0 10,1 14,3 4,3 7,6 10,8 3,4 4,8 6,13 -3,4 -1,10 -1,15zm-14 1c0,-4 0,-7 -1,-11 0,-4 -1,-7 -3,-10 -1,-3 -3,-6 -6,-7 -3,-1 -6,-3 -8,-3 -1,0 -4,0 -6,1 -1,0 -4,1 -6,3 -1,1 -4,3 -6,4 -1,1 -4,4 -6,7l0 29c4,4 7,8 11,11 4,3 7,4 11,4 3,0 7,-1 8,-3 1,-1 4,-4 6,-7 1,-3 3,-6 3,-10 0,-3 1,-7 1,-10z"/>
   <path class="fil0" d="M4172 6461c0,3 0,4 -1,4 -1,1 -3,1 -4,1l-49 0c0,4 0,8 1,11 1,3 3,6 4,8 1,3 4,4 7,6 3,1 7,1 11,1 4,0 7,0 10,-1 3,0 6,-1 7,-1 1,-1 4,-1 6,-1 1,0 3,-1 3,-1 0,0 1,0 1,0 0,0 0,0 1,1 0,0 0,1 0,1 0,0 0,1 0,3 0,1 0,1 0,1 0,0 0,1 0,1 0,0 0,1 0,1 0,0 0,0 -1,1 0,0 -1,1 -3,1 -1,0 -3,1 -6,1 -3,0 -6,1 -8,1 -3,0 -7,1 -10,1 -6,0 -11,-1 -17,-3 -6,-1 -8,-4 -11,-7 -3,-3 -6,-7 -7,-13 -1,-6 -3,-11 -3,-18 0,-7 1,-13 3,-17 1,-4 4,-10 7,-13 3,-4 7,-7 11,-8 4,-1 10,-3 15,-3 6,0 11,1 15,3 4,1 7,4 10,7 3,3 4,7 6,11 1,4 1,8 1,14l0 3zm-14 -4c0,-7 -1,-13 -4,-17 -3,-4 -8,-6 -15,-6 -3,0 -7,0 -8,1 -3,1 -4,3 -7,6 -1,3 -3,4 -4,7 -1,3 -1,6 -1,8l40 0z"/>
   <path class="fil0" d="M4257 6502c0,1 0,1 0,0 0,1 -1,1 -1,1 0,0 -1,0 -1,0 -1,0 -1,0 -3,0 -1,0 -3,0 -3,0 -1,0 -1,0 -1,0 0,0 -1,0 -1,-1 0,0 0,-1 0,-1l0 -10c-4,4 -8,7 -13,10 -4,3 -8,4 -14,4 -6,0 -10,-1 -14,-3 -4,-3 -7,-6 -10,-8 -3,-4 -4,-8 -6,-13 -1,-4 -1,-10 -1,-15 0,-7 0,-13 1,-17 1,-6 3,-10 6,-14 3,-4 6,-7 10,-8 4,-1 8,-3 14,-3 4,0 8,1 13,3 4,1 7,4 11,8l0 -43c0,0 0,-1 0,-1 0,0 0,0 1,-1 1,-1 1,0 3,0 1,0 1,0 3,0 1,0 3,0 3,0 1,0 1,0 1,0 0,0 1,0 1,1 0,0 0,1 0,1l0 110 1 0zm-14 -52c-4,-4 -7,-8 -11,-11 -3,-3 -7,-4 -11,-4 -4,0 -7,1 -8,3 -1,1 -4,4 -6,7 -1,3 -3,6 -3,10 0,4 -1,7 -1,11 0,4 0,7 1,11 0,4 1,7 3,10 1,3 3,6 6,7 3,1 6,3 8,3 1,0 4,0 6,-1 1,-1 3,-1 6,-3 1,-1 4,-3 6,-4 1,-1 4,-4 6,-7l0 -31z"/>
   <path class="fil0" d="M4362 6397c0,1 0,1 0,3 0,0 0,1 0,1 0,0 0,0 0,1 0,0 0,0 -1,0 0,0 -1,0 -1,0 0,0 -1,0 -3,-1 -1,0 -1,0 -3,-1 -1,-1 -3,0 -4,0 -1,0 -4,0 -6,1 -1,0 -3,1 -4,3 -1,1 -1,3 -1,6 0,3 0,6 0,8l0 8 17 0c0,0 1,0 1,0 0,0 0,0 1,1 0,0 0,1 0,1 0,1 0,1 0,3 0,1 0,3 -1,4 0,1 -1,1 -1,1l-17 0 0 65c0,0 0,1 0,1 0,0 0,0 -1,1 -1,1 -1,0 -3,0 -1,0 -1,0 -3,0 -1,0 -3,0 -3,0 -1,0 -1,0 -3,0 0,0 -1,0 -1,-1 0,0 0,0 0,-1l0 -65 -11 0c-1,0 -1,0 -1,-1 0,-1 0,-3 0,-4 0,-1 0,-1 0,-3 0,-1 0,-1 0,-1 0,0 0,-1 1,-1 0,0 1,0 1,0l11 0 0 -8c0,-6 0,-10 1,-14 1,-4 3,-7 4,-10 1,-3 4,-4 7,-6 3,-1 7,-1 11,-1 1,0 4,0 6,0 1,0 3,1 4,1 1,0 1,1 1,1 0,0 0,1 1,1 0,0 0,1 0,1 0,0 0,3 0,4z"/>
   <path class="fil0" d="M4417 6432c0,1 0,3 0,3 0,1 0,1 0,1 0,0 0,1 0,1 0,0 0,0 -1,0 -1,0 -1,0 -1,0 0,0 -1,0 -3,-1 -1,-1 -1,0 -3,-1 -1,0 -1,0 -3,0 -1,0 -3,0 -4,1 -1,0 -3,1 -4,3 -1,1 -3,3 -4,6 -1,3 -3,4 -6,8l0 49c0,0 0,1 0,1 0,0 0,0 -1,1 -1,1 -1,0 -1,0 -1,0 -1,0 -3,0 -1,0 -3,0 -3,0 -1,0 -1,0 -3,0 -1,0 -1,0 -1,-1 0,0 0,0 0,-1l0 -75c0,0 0,-1 0,-1 0,0 0,0 1,-1 0,0 1,0 1,0 1,0 1,0 3,0 1,0 3,0 3,0 1,0 1,0 1,0 0,0 1,0 1,1 0,0 0,0 0,1l0 11c1,-3 4,-6 6,-7 1,-1 4,-3 6,-4 1,-1 3,-1 4,-3 1,0 3,0 4,0 1,0 1,0 3,0 1,0 1,0 3,0 1,0 1,0 3,1 1,0 1,0 1,1 0,0 0,0 0,1 0,0 0,0 0,1 0,0 0,1 0,1 0,0 1,0 1,1z"/>
   <path class="fil0" d="M4500 6464c0,6 -1,11 -3,17 -1,6 -4,10 -7,14 -3,4 -7,7 -13,8 -4,1 -10,3 -17,3 -6,0 -11,-1 -17,-3 -4,-1 -8,-4 -11,-8 -3,-4 -6,-8 -7,-13 -1,-6 -3,-11 -3,-17 0,-6 1,-11 3,-17 1,-6 4,-10 7,-14 3,-4 7,-7 13,-8 4,-1 10,-3 17,-3 6,0 11,1 17,3 4,1 8,4 11,8 3,4 6,8 7,13 1,6 3,11 3,17zm-15 1c0,-4 0,-8 -1,-11 -1,-4 -1,-7 -4,-10 -1,-3 -4,-4 -7,-7 -3,-3 -7,-3 -11,-3 -4,0 -7,1 -11,3 -3,1 -6,4 -7,6 -1,1 -3,6 -4,10 -1,4 -1,7 -1,11 0,4 0,8 1,11 1,3 1,7 4,10 1,3 4,4 7,7 3,3 7,3 11,3 4,0 7,-1 11,-3 3,-1 6,-3 7,-6 1,-3 3,-6 4,-10 1,-3 1,-7 1,-11z"/>
   <path class="fil0" d="M4630 6502c0,1 0,1 0,0 0,1 -1,1 -1,1 0,0 -1,0 -1,0 -1,0 -1,0 -3,0 -1,0 -3,0 -3,0 -1,0 -1,0 -3,0 -1,0 -1,0 -1,-1 0,0 0,0 0,-1l0 -46c0,-3 0,-6 -1,-8 0,-3 -1,-4 -3,-7 -1,-1 -3,-3 -4,-4 -1,-1 -4,-1 -7,-1 -3,0 -7,1 -10,4 -3,3 -7,6 -11,11l0 52c0,0 0,1 0,1 0,0 0,0 -1,1 -1,1 -1,0 -3,0 -1,0 -1,0 -3,0 -1,0 -3,0 -3,0 -1,0 -1,0 -3,0 -1,0 -1,0 -1,-1 0,0 0,0 0,-1l0 -46c0,-3 0,-6 -1,-8 0,-3 -1,-4 -3,-7 -1,-1 -3,-3 -4,-4 -1,-1 -4,-1 -7,-1 -3,0 -7,1 -10,4 -3,3 -7,6 -11,11l0 52c0,0 0,1 0,1 0,0 0,0 -1,1 -1,1 -1,0 -1,0 -1,0 -1,0 -3,0 -1,0 -3,0 -3,0 -1,0 -1,0 -3,0 -1,0 -1,0 -1,-1 0,0 0,0 0,-1l0 -75c0,0 0,-1 0,-1 0,0 0,0 1,-1 0,0 1,0 1,0 1,0 1,0 3,0 1,0 3,0 3,0 1,0 1,0 1,0 0,0 1,0 1,1 0,0 0,0 0,1l0 10c4,-4 8,-8 13,-10 4,-3 8,-3 13,-3 3,0 6,0 8,1 3,1 4,1 7,3 1,1 4,3 4,4 1,1 3,4 3,6 3,-3 4,-6 7,-7 3,-1 4,-3 7,-4 3,-1 4,-1 6,-3 1,0 4,-1 6,-1 4,0 8,1 13,3 4,1 6,4 8,7 1,3 3,6 4,10 1,4 1,8 1,13l0 49 1 0z"/>
   <path class="fil0" d="M4763 6403c0,1 0,1 0,3 0,1 0,1 0,1 0,0 0,1 -1,1 -1,0 -1,0 -1,0l-31 0 0 93c0,0 0,1 0,1 0,0 0,0 -1,1 0,0 -1,0 -3,0 -1,0 -1,0 -3,0 -1,0 -3,0 -3,0 -1,0 -1,0 -3,0 -1,0 -1,0 -1,-1 0,0 0,-1 0,-1l0 -92 -31 0c0,0 -1,0 -1,0 0,0 0,0 -1,-1 0,0 0,-1 0,-1 0,-1 0,-1 0,-3 0,-1 0,-1 0,-3 0,-1 0,-1 0,-1 0,0 0,-1 1,-1 1,0 1,0 1,0l75 0c0,0 1,0 1,0 0,0 0,0 1,1 0,0 0,1 0,1 0,0 0,1 0,1z"/>
   <path class="fil0" d="M4831 6464c0,6 -1,11 -3,17 -1,6 -4,10 -7,14 -3,4 -7,7 -13,8 -4,1 -10,3 -17,3 -6,0 -11,-1 -17,-3 -4,-1 -8,-4 -11,-8 -3,-4 -6,-8 -7,-13 -1,-6 -3,-11 -3,-17 0,-6 1,-11 3,-17 1,-6 4,-10 7,-14 3,-4 7,-7 13,-8 4,-1 10,-3 17,-3 6,0 11,1 17,3 4,1 8,4 11,8 3,4 6,8 7,13 1,6 3,11 3,17zm-15 1c0,-4 0,-8 -1,-11 -1,-4 -1,-7 -4,-10 -1,-3 -4,-4 -7,-7 -3,-3 -7,-3 -11,-3 -4,0 -7,1 -11,3 -3,1 -6,4 -7,6 -1,1 -3,6 -4,10 -1,4 -1,7 -1,11 0,4 0,8 1,11 1,3 1,7 4,10 1,3 4,4 7,7 3,3 7,3 11,3 4,0 7,-1 11,-3 3,-1 6,-3 7,-6 1,-3 3,-6 4,-10 1,-3 1,-7 1,-11z"/>
   <path class="fil0" d="M4920 6464c0,6 -1,11 -3,17 -1,6 -4,10 -7,14 -3,4 -7,7 -13,8 -4,1 -10,3 -17,3 -6,0 -11,-1 -17,-3 -4,-1 -8,-4 -11,-8 -3,-4 -6,-8 -7,-13 -1,-6 -3,-11 -3,-17 0,-6 1,-11 3,-17 1,-6 4,-10 7,-14 3,-4 7,-7 13,-8 4,-1 10,-3 17,-3 6,0 11,1 17,3 4,1 8,4 11,8 3,4 6,8 7,13 1,6 3,11 3,17zm-14 1c0,-4 0,-8 -1,-11 -1,-4 -1,-7 -4,-10 -1,-3 -4,-4 -7,-7 -3,-3 -7,-3 -11,-3 -4,0 -7,1 -11,3 -3,1 -6,4 -7,6 -1,1 -3,6 -4,10 -1,4 -1,7 -1,11 0,4 0,8 1,11 1,3 1,7 4,10 1,3 4,4 7,7 3,3 7,3 11,3 4,0 7,-1 11,-3 3,-1 6,-3 7,-6 1,-3 3,-6 4,-10 0,-3 1,-7 1,-11z"/>
   <path class="fil0" d="M5005 6502c0,1 0,1 0,0 0,1 -1,1 -1,1 0,0 -1,0 -1,0 -1,0 -1,0 -3,0 -1,0 -3,0 -3,0 -1,0 -1,0 -1,0 0,0 -1,0 -1,-1 0,0 0,0 0,-1l0 -43c0,-4 0,-8 -1,-10 0,-3 -1,-4 -3,-7 -1,-1 -3,-3 -6,-4 -3,-1 -4,-1 -7,-1 -3,0 -7,1 -10,4 -3,3 -7,6 -11,11l0 52c0,0 0,1 0,1 0,0 0,0 -1,1 -1,1 -1,0 -1,0 -1,0 -1,0 -3,0 -1,0 -3,0 -3,0 -1,0 -1,0 -3,0 -1,0 -1,0 -1,-1 0,0 0,0 0,-1l0 -75c0,0 0,-1 0,-1 0,0 0,0 1,-1 0,0 1,0 1,0 1,0 1,0 3,0 1,0 3,0 3,0 1,0 1,0 1,0 0,0 1,0 1,1 0,0 0,0 0,1l0 10c4,-4 8,-8 13,-10 4,-1 8,-3 13,-3 6,0 10,1 13,3 3,1 6,4 8,7 3,3 4,6 4,10 1,4 1,8 1,14l0 45 -1 0z"/>
   <path class="fil0" d="M5078 6499c0,1 0,1 0,3 0,1 0,1 0,1 0,0 0,1 -1,1 0,0 -1,0 -1,0l-46 0c-1,0 -3,0 -3,-1 -1,-1 -1,-1 -1,-4l0 -3c0,-1 0,-1 0,-1 0,0 0,-1 0,-1 0,0 0,-1 1,-1 0,0 1,-1 1,-3l33 -52 -32 0c-1,0 -1,0 -3,-1 0,-1 -1,-3 -1,-4 0,-1 0,-1 0,-3 0,-1 0,-1 0,-1 0,0 0,-1 1,-1 0,0 1,0 1,0l43 0c0,0 1,0 1,0 0,0 1,0 1,1 0,0 0,1 1,1 0,0 0,1 0,3l0 3c0,1 0,1 0,3 0,0 0,1 0,1 0,0 0,1 -1,1 0,1 -1,1 -1,3l-33 52 35 0c0,0 1,0 1,0 0,0 0,0 1,1 0,0 0,1 0,1 1,-1 1,0 1,1z"/>
   <path class="fil0" d="M5115 6492c0,1 0,3 0,4 0,1 0,3 -1,4 0,1 -1,3 -1,4 0,1 -1,3 -3,4l-11 17c0,0 0,1 -1,1 0,0 -1,0 -1,1 0,0 -1,0 -1,0 0,0 -1,0 -3,0 -1,0 -1,0 -3,0 0,0 -1,0 -1,0 0,0 0,0 0,-1 0,0 0,-1 0,-1l11 -22 0 -11c0,-1 0,-3 0,-4 0,-1 1,-1 1,-1 0,0 1,-1 3,-1 1,0 3,0 4,0 1,0 3,0 4,0 1,0 1,0 3,1 0,0 1,1 1,1 0,0 0,3 0,4z"/>
   <path class="fil0" d="M5234 6503c0,0 0,1 0,1 0,0 -1,0 -1,1 0,1 -1,0 -3,0 -1,0 -3,0 -3,0 0,0 -1,0 -1,-1 0,0 0,-1 0,-1l0 -7c-3,4 -7,6 -11,8 -4,1 -8,3 -13,3 -4,0 -7,0 -11,-1 -4,-1 -6,-3 -8,-4 -3,-1 -4,-4 -6,-7 -1,-3 -1,-6 -1,-10 0,-4 1,-8 3,-11 1,-3 4,-6 7,-8 3,-1 7,-4 11,-4 4,-1 10,-1 15,-1l10 0 0 -6c0,-3 0,-6 -1,-7 0,-3 -1,-4 -3,-6 -1,-1 -3,-3 -6,-3 -3,-1 -4,-1 -8,-1 -3,0 -7,0 -10,1 -3,1 -6,1 -7,3 -1,1 -4,1 -6,3 -1,1 -3,1 -3,1 0,0 -1,0 -1,0 0,0 0,0 -1,-1 0,0 0,-1 0,-1 0,0 0,-1 0,-3 0,-1 0,-3 0,-3 0,-1 0,-1 1,-3 1,-1 1,-1 4,-3 1,-1 4,-1 7,-3 3,-1 6,-1 8,-1 3,0 6,-1 8,-1 6,0 10,0 14,1 4,1 7,3 10,6 3,3 4,6 6,8 1,4 1,7 1,13l0 49 -1 0zm-14 -35l-11 0c-4,0 -7,0 -10,1 -3,0 -6,1 -7,3 -1,1 -3,3 -4,4 -1,1 -1,4 -1,6 0,4 1,7 4,10 3,3 6,3 10,3 4,0 7,-1 10,-3 3,-1 7,-4 10,-8l0 -15z"/>
   <path class="fil0" d="M5344 6482c0,4 -1,7 -3,10 -1,3 -3,6 -6,7 -3,1 -6,4 -10,4 -4,1 -7,1 -13,1 -3,0 -6,0 -7,0 -3,0 -4,-1 -7,-1 -1,0 -4,-1 -4,-1 -1,0 -3,-1 -3,-1 0,0 -1,-1 -1,-3 0,-1 0,-3 0,-4 0,-1 0,-1 0,-3 0,-1 0,-1 0,-1 0,0 0,-1 1,-1 0,0 0,0 1,0 0,0 1,0 3,1 1,1 3,1 4,3 1,1 4,1 6,3 3,1 6,1 8,1 3,0 4,0 7,-1 1,0 4,-1 6,-3 1,-1 3,-3 3,-4 1,-1 1,-3 1,-6 0,-3 0,-4 -1,-6 -1,-1 -3,-3 -4,-4 -1,-1 -4,-1 -6,-3 -3,-1 -4,-1 -7,-3 -3,-1 -4,-1 -7,-3 -3,-1 -4,-3 -6,-4 -1,-1 -3,-4 -4,-6 -1,-3 -1,-6 -1,-8 0,-3 0,-6 1,-8 1,-3 3,-6 6,-7 3,-1 6,-4 8,-4 3,-1 7,-1 13,-1 1,0 4,0 6,0 1,0 4,1 6,1 1,0 3,1 4,1 1,0 1,1 3,1 0,0 1,1 1,1 0,0 0,1 0,1 0,0 0,1 0,1 0,0 0,1 0,3 0,1 0,1 0,3 0,1 0,1 0,1 0,0 0,1 -1,1 0,0 0,0 -1,0 0,0 -1,0 -3,-1 -1,0 -3,-1 -4,-1 -1,0 -3,-1 -6,-1 -1,0 -4,-1 -7,-1 -3,0 -4,0 -6,1 -1,0 -3,1 -4,3 -1,1 -1,3 -3,3 0,1 -1,3 -1,4 0,3 0,4 1,6 1,1 3,3 4,4 1,1 4,3 6,3 3,1 4,1 7,3 3,1 4,1 7,3 3,1 4,3 6,4 1,1 3,4 4,6 3,1 3,4 3,7z"/>
   <path class="fil0" d="M5433 6464c0,6 -1,11 -3,17 -1,6 -4,10 -7,14 -3,4 -7,7 -13,8 -4,1 -10,3 -17,3 -6,0 -11,-1 -17,-3 -4,-1 -8,-4 -11,-8 -3,-4 -6,-8 -7,-13 -1,-6 -3,-11 -3,-17 0,-6 1,-11 3,-17 1,-6 4,-10 7,-14 3,-4 7,-7 13,-8 4,-1 10,-3 17,-3 6,0 11,1 17,3 4,1 8,4 11,8 3,4 6,8 7,13 3,6 3,11 3,17zm-14 1c0,-4 0,-8 -1,-11 -1,-4 -1,-7 -4,-10 -1,-3 -4,-4 -7,-7 -3,-3 -7,-3 -11,-3 -4,0 -7,1 -11,3 -3,1 -6,4 -7,6 -1,1 -3,6 -4,10 -1,4 -1,7 -1,11 0,4 0,8 1,11 1,3 1,7 4,10 1,3 4,4 7,7 3,3 7,3 11,3 4,0 7,-1 11,-3 3,-1 6,-3 7,-6 1,-3 3,-6 4,-10 1,-3 1,-7 1,-11z"/>
   <path class="fil0" d="M5471 6436l0 65c0,0 0,1 0,1 0,0 0,0 -1,1 -1,1 -1,0 -3,0 -1,0 -1,0 -3,0 -1,0 -3,0 -3,0 -1,0 -1,0 -3,0 0,0 -1,0 -1,-1 0,0 0,0 0,-1l0 -65 -11 0c-1,0 -1,0 -1,-1 0,-1 0,-3 0,-4 0,-1 0,-1 0,-3 0,-1 0,-1 0,-1 0,0 0,-1 1,-1 0,0 1,0 1,0l11 0 0 -8c0,-6 0,-10 1,-14 1,-4 3,-7 4,-10 1,-3 4,-4 7,-6 3,-1 7,-1 11,-1 1,0 4,0 6,0 1,0 3,1 4,1 1,0 1,1 1,1 0,0 0,1 1,1 0,0 0,1 0,1 0,1 0,1 0,3 0,1 0,1 0,3 0,0 0,1 0,1 0,0 0,0 0,1 0,0 0,0 -1,0 0,0 -1,0 -1,0 0,0 -1,0 -1,-1 -1,0 -1,0 -3,-1 -1,0 -3,0 -4,0 -1,0 -4,0 -6,1 -1,0 -3,1 -3,3 -1,1 -1,3 -1,6 0,3 0,6 0,8l0 8 33 0 0 -18c0,0 0,-1 0,-1 0,0 0,0 1,-1 1,-1 1,0 1,0 1,0 1,0 3,0 1,0 3,0 3,0 1,0 1,0 1,0 0,0 1,0 1,1 0,0 0,0 0,1l0 18 20 0c0,0 1,0 1,0 0,0 0,0 1,1 0,0 0,1 0,1 0,1 0,1 0,3 0,1 0,3 -1,4 0,1 -1,1 -1,1l-20 0 0 42c0,6 1,8 3,11 1,3 4,4 8,4 1,0 3,0 3,0 1,0 1,0 3,-1 1,0 1,0 1,-1 0,0 1,0 1,0 0,0 0,0 1,0 0,0 0,0 0,1 0,1 0,1 0,1 0,0 0,1 0,3 0,1 0,3 0,4 0,1 0,1 -1,1 0,0 -1,1 -1,1 -1,0 -1,0 -3,1 -1,0 -3,0 -4,0 -1,0 -3,0 -4,0 -4,0 -7,0 -10,-1 -3,-1 -6,-3 -7,-4 -1,-1 -3,-4 -4,-8 -1,-4 -1,-7 -1,-11l0 -43 -32 0 0 1z"/>
   <path class="fil0" d="M5663 6428c0,0 0,1 0,1 0,0 0,1 0,1l-22 71c0,0 0,1 -1,1 0,0 -1,0 -1,1 0,1 -1,0 -3,0 -1,0 -3,0 -4,0 -1,0 -3,0 -4,0 -1,0 -3,0 -3,0 0,0 -1,0 -1,-1 0,0 0,-1 -1,-1l-15 -54 0 -1 0 1 -14 54c0,0 0,1 -1,1 0,0 -1,0 -1,1 0,1 -1,0 -3,0 -1,0 -3,0 -4,0 -1,0 -3,0 -4,0 -1,0 -1,0 -3,0 -1,0 -1,0 -1,-1 0,0 0,-1 -1,-1l-22 -71c0,-1 0,-1 0,-1 0,0 0,-1 0,-1 0,0 0,-1 0,-1 0,0 0,0 1,-1 1,-1 1,0 3,0 1,0 1,0 3,0 1,0 3,0 4,0 1,0 1,0 3,0 0,0 1,0 1,1 0,0 0,1 0,1l18 61 0 1 0 -1 17 -61c0,0 0,-1 0,-1 0,0 0,0 1,-1 0,0 1,0 1,0 1,0 1,0 3,0 1,0 3,0 3,0 1,0 1,0 1,0 0,0 1,0 1,1 0,1 0,1 0,1l18 61 0 1 0 -1 18 -61c0,0 0,-1 0,-1 0,0 0,0 1,-1 0,0 1,0 3,0 1,0 3,0 4,0 1,0 3,0 3,0 1,0 1,0 1,0 1,1 3,1 3,3 0,-1 0,-1 0,0z"/>
   <path class="fil0" d="M5734 6503c0,0 0,1 0,1 0,0 -1,0 -1,1 0,1 -1,0 -3,0 -1,0 -3,0 -3,0 0,0 -1,0 -1,-1 0,0 0,-1 0,-1l0 -7c-3,4 -7,6 -11,8 -4,1 -8,3 -13,3 -4,0 -7,0 -11,-1 -3,-1 -6,-3 -8,-4 -3,-1 -4,-4 -6,-7 -1,-3 -1,-6 -1,-10 0,-4 1,-8 3,-11 1,-3 4,-6 7,-8 3,-3 7,-4 11,-4 4,-1 10,-1 15,-1l10 0 0 -6c0,-3 0,-6 -1,-7 0,-3 -1,-4 -3,-6 -1,-1 -3,-3 -6,-3 -3,-1 -4,-1 -8,-1 -3,0 -7,0 -10,1 -3,1 -6,1 -7,3 -1,1 -4,1 -6,3 -1,1 -3,1 -3,1 0,0 -1,0 -1,0 0,0 0,0 -1,-1 0,0 0,-1 0,-1 0,0 0,-1 0,-3 0,-1 0,-3 0,-3 0,0 0,-1 1,-3 1,-1 1,-1 4,-3 1,-1 4,-1 7,-3 3,-1 6,-1 8,-1 3,0 6,-1 8,-1 6,0 10,0 14,1 4,1 7,3 10,6 3,3 4,6 6,8 1,3 1,7 1,13l0 49 -1 0zm-14 -35l-11 0c-4,0 -7,0 -10,1 -3,0 -6,1 -7,3 -1,1 -3,3 -4,4 -1,1 -1,4 -1,6 0,4 1,7 4,10 3,3 6,3 10,3 4,0 7,-1 10,-3 3,-1 7,-4 10,-8l0 -15z"/>
   <path class="fil0" d="M5804 6432c0,1 0,3 0,3 0,0 0,1 0,1 0,0 0,1 0,1 0,0 0,0 -1,0 0,0 -1,0 -1,0 0,0 -1,0 -3,-1 -1,-1 -1,0 -3,-1 -1,0 -1,0 -3,0 -1,0 -3,0 -4,1 -1,0 -3,1 -4,3 -1,1 -3,3 -4,6 -1,3 -3,4 -6,8l0 49c0,0 0,1 0,1 0,0 0,0 -1,1 0,0 -1,0 -1,0 -1,0 -1,0 -3,0 -1,0 -3,0 -3,0 -1,0 -1,0 -3,0 -1,0 -1,0 -1,-1 0,0 0,0 0,-1l0 -75c0,0 0,-1 0,-1 0,0 0,0 1,-1 0,0 1,0 1,0 1,0 1,0 3,0 1,0 3,0 3,0 1,0 1,0 1,0 0,0 1,0 1,1 0,0 0,0 0,1l0 11c1,-3 4,-6 6,-7 1,-1 4,-3 6,-4 1,-1 3,-1 4,-3 1,0 3,0 4,0 1,0 1,0 3,0 1,0 1,0 3,0 1,0 1,0 3,1 1,0 1,0 1,1 0,0 0,0 0,1 0,0 0,0 0,1 0,0 0,1 0,1 0,0 1,0 1,1z"/>
   <path class="fil0" d="M5880 6461c0,3 0,4 -1,4 -1,1 -3,1 -4,1l-49 0c0,4 0,8 1,11 1,3 3,6 4,8 1,3 4,4 7,6 3,1 7,1 11,1 4,0 7,0 10,-1 3,0 6,-1 7,-1 1,0 4,-1 6,-1 1,0 3,-1 3,-1 0,0 1,0 1,0 0,0 0,0 1,1 0,0 0,1 0,1 0,0 0,1 0,3 0,1 0,1 0,1 0,0 0,1 0,1 0,0 0,1 0,1 0,0 0,0 -1,1 0,0 -1,1 -3,1 -1,0 -3,1 -6,1 -3,0 -6,1 -8,1 -3,0 -7,1 -10,1 -6,0 -11,-1 -17,-3 -4,-1 -8,-4 -11,-7 -3,-3 -6,-7 -7,-13 -1,-6 -3,-11 -3,-18 0,-7 1,-13 3,-17 1,-4 4,-10 7,-13 3,-4 7,-7 11,-8 4,-1 10,-3 15,-3 6,0 11,1 15,3 4,1 7,4 10,7 3,3 4,7 6,11 1,4 1,8 1,14l0 3zm-14 -4c0,-7 -1,-13 -4,-17 -3,-4 -8,-6 -15,-6 -3,0 -7,0 -8,1 -3,1 -4,3 -7,6 -1,3 -3,4 -4,7 -1,3 -1,6 -1,8l40 0z"/>
   <path class="fil0" d="M6009 6464c0,6 -1,11 -3,17 -1,6 -4,10 -7,14 -3,4 -7,7 -13,8 -4,1 -10,3 -17,3 -6,0 -11,-1 -17,-3 -4,-1 -8,-4 -11,-8 -3,-4 -6,-8 -7,-13 -1,-4 -3,-11 -3,-17 0,-6 1,-11 3,-17 1,-6 4,-10 7,-14 3,-4 7,-7 13,-8 4,-1 10,-3 17,-3 6,0 11,1 17,3 4,1 8,4 11,8 3,4 6,8 7,13 1,4 3,11 3,17zm-14 1c0,-4 0,-8 -1,-11 -1,-4 -1,-7 -4,-10 -1,-3 -4,-4 -7,-7 -3,-1 -7,-3 -11,-3 -4,0 -7,1 -11,3 -3,1 -6,4 -7,6 -1,3 -3,6 -4,10 -1,4 -1,7 -1,11 0,4 0,8 1,11 1,4 1,7 4,10 1,3 4,4 7,7 3,1 7,3 11,3 4,0 7,-1 11,-3 3,-1 6,-3 7,-6 1,-3 3,-6 4,-10 1,-3 1,-7 1,-11z"/>
   <path class="fil0" d="M6073 6432c0,1 0,3 0,3 0,0 0,1 0,1 0,0 0,1 0,1 0,0 0,0 -1,0 0,0 -1,0 -1,0 0,0 -1,0 -3,-1 -1,-1 -1,0 -3,-1 -1,0 -1,0 -3,0 -1,0 -3,0 -4,1 -1,0 -3,1 -4,3 -1,1 -3,3 -4,6 -1,3 -3,4 -6,8l0 49c0,0 0,1 0,1 0,0 0,0 -1,1 0,0 -1,0 -1,0 -1,0 -1,0 -3,0 -1,0 -3,0 -3,0 -1,0 -1,0 -3,0 -1,0 -1,0 -1,-1 0,0 0,0 0,-1l0 -75c0,0 0,-1 0,-1 0,0 0,0 1,-1 0,0 1,0 1,0 1,0 1,0 3,0 1,0 3,0 3,0 1,0 1,0 1,0 0,0 1,0 1,1 0,0 0,0 0,1l0 11c1,-3 4,-6 6,-7 1,-1 4,-3 6,-4 1,-1 3,-1 4,-3 1,0 3,0 4,0 1,0 1,0 3,0 1,0 1,0 3,0 1,0 1,0 3,1 1,0 1,0 1,1 0,0 0,0 0,1 0,0 0,0 0,1 0,0 0,1 0,1 0,0 1,0 1,1z"/>
   <path class="fil0" d="M6103 6403c0,3 0,6 -1,7 -1,1 -3,1 -7,1 -3,0 -6,0 -7,-1 -1,-1 -1,-3 -1,-7 0,-3 0,-6 1,-7 1,-1 3,-1 7,-1 3,0 6,0 7,1 1,1 1,3 1,7zm-1 99c0,1 0,1 0,0 0,1 -1,1 -1,1 0,0 -1,0 -1,0 -1,0 -1,0 -3,0 -1,0 -3,0 -3,0 -1,0 -1,0 -3,0 -1,0 -1,0 -1,-1 0,0 0,0 0,-1l0 -75c0,0 0,-1 0,-1 0,0 0,0 1,-1 1,-1 1,0 3,0 1,0 1,0 3,0 1,0 3,0 3,0 1,0 1,0 1,0 0,0 1,0 1,1 0,0 0,0 0,1l0 77z"/>
   <path class="fil0" d="M6190 6431c0,1 0,3 -1,4 0,1 -1,1 -1,1l-11 0c1,1 3,4 4,7 1,3 1,6 1,7 0,4 0,8 -1,11 -1,3 -3,6 -6,8 -3,3 -6,4 -10,6 -4,1 -7,1 -11,1 -3,0 -6,0 -8,-1 -3,-1 -4,-1 -7,-3 -1,1 -1,3 -3,3 0,1 -1,3 -1,4 0,1 1,4 3,4 1,1 4,1 7,1l20 1c4,0 7,0 10,1 3,1 6,3 8,4 3,1 4,4 6,6 1,3 1,6 1,8 0,3 -1,7 -3,10 -1,3 -4,6 -7,8 -3,3 -7,4 -11,6 -4,1 -10,1 -17,1 -6,0 -11,0 -15,-1 -4,-1 -8,-3 -10,-4 -3,-1 -4,-4 -6,-7 -1,-3 -1,-6 -1,-8 0,-1 0,-4 0,-6 0,-1 1,-3 1,-6 1,-1 1,-3 3,-4 1,-1 3,-3 4,-4 -3,-1 -4,-3 -6,-6 -1,-3 -1,-4 -1,-7 0,-3 0,-7 1,-8 1,-3 3,-6 6,-7 -1,-1 -3,-4 -4,-7 -1,-3 -1,-6 -1,-10 0,-4 1,-8 3,-11 1,-3 3,-6 6,-8 3,-3 6,-4 10,-6 4,-1 7,-1 11,-1 3,0 4,0 7,0 1,0 4,0 6,1l22 0c1,0 1,0 3,1 1,6 1,7 1,8zm-14 79c0,-3 -1,-6 -4,-7 -3,-1 -6,-3 -11,-3l-20 0c-1,1 -3,3 -4,4 -1,1 -1,3 -3,4 0,1 -1,3 -1,3 0,1 0,3 0,3 0,4 1,7 6,8 4,1 8,3 15,3 4,0 7,0 10,-1 3,-1 6,-1 7,-3 1,-1 3,-3 4,-4 1,-1 1,-6 1,-7zm-7 -60c0,-6 -1,-10 -4,-13 -3,-3 -7,-4 -13,-4 -3,0 -6,0 -7,1 -1,1 -4,3 -6,4 -1,1 -3,3 -3,6 0,1 -1,4 -1,7 0,6 1,8 4,11 3,3 7,4 11,4 3,0 6,0 7,-1 1,-1 4,-1 6,-4 1,-3 3,-3 3,-6 3,-1 3,-3 3,-6z"/>
   <path class="fil0" d="M6223 6403c0,3 0,6 -1,7 -1,1 -3,1 -7,1 -3,0 -6,0 -7,-1 -1,-1 -1,-3 -1,-7 0,-3 0,-6 1,-7 1,-1 3,-1 7,-1 3,0 6,0 7,1 0,1 1,3 1,7zm-1 99c0,1 0,1 0,0 0,1 -1,1 -1,1 0,0 -1,0 -1,0 -1,0 -1,0 -3,0 -1,0 -3,0 -3,0 -1,0 -1,0 -3,0 -1,0 -1,0 -1,-1 0,0 0,0 0,-1l0 -75c0,0 0,-1 0,-1 0,0 0,0 1,-1 1,-1 1,0 3,0 1,0 1,0 3,0 1,0 3,0 3,0 1,0 1,0 1,0 0,0 1,0 1,1 0,0 0,0 0,1l0 77z"/>
   <path class="fil0" d="M6311 6502c0,1 0,1 0,0 0,1 -1,1 -1,1 0,0 -1,0 -1,0 -1,0 -1,0 -3,0 -1,0 -3,0 -3,0 -1,0 -1,0 -1,0 0,0 -1,0 -1,-1 0,0 0,0 0,-1l0 -43c0,-4 0,-8 -1,-10 0,-3 -1,-4 -3,-7 -1,-1 -3,-3 -6,-4 -1,-1 -4,-1 -7,-1 -3,0 -7,1 -10,4 -3,3 -7,6 -11,11l0 52c0,0 0,1 0,1 0,0 0,0 -1,1 0,0 -1,0 -1,0 -1,0 -1,0 -3,0 -1,0 -3,0 -3,0 -1,0 -1,0 -3,0 -1,0 -1,0 -1,-1 0,0 0,0 0,-1l0 -75c0,0 0,-1 0,-1 0,0 0,0 1,-1 0,0 1,0 1,0 1,0 1,0 3,0 1,0 3,0 3,0 1,0 1,0 1,0 0,0 1,0 1,1 0,0 0,0 0,1l0 10c4,-4 8,-8 13,-10 4,-1 8,-3 13,-3 6,0 10,1 13,3 3,1 6,4 8,7 3,3 4,6 4,10 1,4 1,8 1,14l0 45 -1 0z"/>
   <path class="fil0" d="M6392 6503c0,0 0,1 0,1 0,0 -1,0 -1,1 0,1 -1,0 -3,0 -1,0 -3,0 -3,0 0,0 -1,0 -1,-1 0,0 0,-1 0,-1l0 -7c-3,4 -7,6 -11,8 -4,1 -8,3 -13,3 -4,0 -7,0 -11,-1 -3,-1 -6,-3 -8,-4 -3,-1 -4,-4 -6,-7 -1,-3 -1,-6 -1,-10 0,-4 1,-8 3,-11 1,-3 4,-6 7,-8 3,-3 7,-4 11,-4 4,-1 10,-1 15,-1l10 0 0 -6c0,-3 0,-6 -1,-7 0,-3 -1,-4 -3,-6 -1,-1 -3,-3 -6,-3 -3,-1 -4,-1 -8,-1 -3,0 -7,0 -10,1 -3,1 -6,1 -7,3 -1,1 -4,1 -6,3 -1,1 -3,1 -3,1 0,0 -1,0 -1,0 0,0 0,0 -1,-1 0,0 0,-1 0,-1 0,0 0,-1 0,-3 0,-1 0,-3 0,-3 0,0 0,-1 1,-3 1,-1 1,-1 4,-3 1,-1 4,-1 7,-3 3,-1 6,-1 8,-1 3,0 6,-1 8,-1 6,0 10,0 14,1 4,1 7,3 10,6 3,3 4,6 6,8 1,3 1,7 1,13l0 49 -1 0zm-14 -35l-11 0c-4,0 -7,0 -10,1 -3,0 -6,1 -7,3 -1,1 -3,3 -4,4 -1,1 -1,4 -1,6 0,4 1,7 4,10 3,3 6,3 10,3 4,0 7,-1 10,-3 3,-1 7,-4 10,-8l0 -15z"/>
   <path class="fil0" d="M6431 6502c0,1 0,1 0,0 0,1 -1,1 -1,1 0,0 -1,0 -1,0 -1,0 -1,0 -3,0 -1,0 -3,0 -3,0 -1,0 -1,0 -3,0 -1,0 -1,0 -1,-1 0,0 0,0 0,-1l0 -111c0,0 0,-1 0,-1 0,0 0,0 1,-1 0,0 1,0 3,0 1,0 1,0 3,0 1,0 3,0 3,0 0,0 1,0 1,0 0,0 1,0 1,1 0,0 0,1 0,1l0 113z"/>
   <path class="fil0" d="M6470 6502c0,1 0,1 0,0 0,1 -1,1 -1,1 0,0 -1,0 -1,0 -1,0 -1,0 -3,0 -1,0 -3,0 -3,0 -1,0 -1,0 -3,0 -1,0 -1,0 -1,-1 0,0 0,0 0,-1l0 -111c0,0 0,-1 0,-1 0,0 0,0 1,-1 0,0 1,0 3,0 1,0 1,0 3,0 1,0 3,0 3,0 0,0 1,0 1,0 0,0 1,0 1,1 0,0 0,1 0,1l0 113z"/>
   <path class="fil0" d="M6530 6505l-10 28c0,1 -1,1 -3,1 -1,0 -3,0 -6,0 -1,0 -3,0 -4,0 -1,0 -1,0 -1,-1 0,0 -1,-1 -1,-1 0,0 0,-1 0,-1l10 -26c0,0 -1,0 -1,-1 0,0 -1,-1 -1,-1l-26 -71c0,-1 0,-1 0,-3 0,0 0,-1 0,-1 0,0 1,0 3,-1 1,-1 3,0 4,0 1,0 3,0 4,0 1,0 1,0 3,0 1,0 1,0 1,1 0,0 0,1 1,1l21 60 0 0 21 -60c0,-1 1,-1 1,-1 0,0 1,0 3,0 1,0 3,0 4,0 1,0 3,0 4,0 1,0 1,0 3,1 0,0 1,1 1,1 0,0 0,1 0,3l-31 74z"/>
   <path class="fil0" d="M6665 6491c0,1 0,1 0,3 0,1 0,1 0,1 0,0 0,1 0,1 0,0 0,1 -1,1 -1,0 -1,1 -4,3 -1,1 -4,1 -6,3 -1,1 -4,1 -7,1 -3,0 -6,1 -7,1 -6,0 -10,-1 -14,-3 -4,-1 -7,-4 -10,-8 -3,-3 -6,-7 -7,-13 -1,-6 -3,-11 -3,-17 0,-7 1,-14 3,-20 1,-6 4,-10 7,-13 3,-3 7,-6 11,-7 4,-1 8,-3 14,-3 3,0 4,0 7,0 3,0 4,1 6,1 1,0 4,1 6,3 1,1 3,1 3,3 0,1 1,1 1,1 0,0 0,1 0,1 0,0 0,1 0,1 0,0 0,1 0,3 0,3 0,4 -1,4 0,1 -1,1 -1,1 -1,0 -1,0 -3,-1 -1,-1 -3,-1 -4,-3 -1,-1 -4,-3 -6,-3 -1,0 -6,-1 -8,-1 -7,0 -11,3 -15,7 -4,6 -6,13 -6,22 0,4 0,8 1,13 1,4 3,7 4,10 1,3 4,4 7,6 3,1 6,1 8,1 3,0 6,0 8,-1 3,-1 4,-3 6,-3 1,-1 3,-3 4,-3 1,-1 3,-1 3,-1 0,0 1,0 1,0 0,0 0,0 1,1 0,0 0,1 0,1 0,0 1,3 1,3z"/>
   <path class="fil0" d="M6726 6432c0,1 0,3 0,3 0,0 0,1 0,1 0,0 0,1 0,1 0,0 0,0 -1,0 0,0 -1,0 -1,0 0,0 -1,0 -3,-1 -1,-1 -1,0 -3,-1 -1,0 -1,0 -3,0 -1,0 -3,0 -4,1 -1,0 -3,1 -4,3 -1,1 -3,3 -4,6 -1,3 -3,4 -6,8l0 49c0,0 0,1 0,1 0,0 0,0 -1,1 0,0 -1,0 -1,0 -1,0 -1,0 -3,0 -1,0 -3,0 -3,0 -1,0 -1,0 -3,0 -1,0 -1,0 -1,-1 0,0 0,0 0,-1l0 -75c0,0 0,-1 0,-1 0,0 0,0 1,-1 0,0 1,0 1,0 1,0 1,0 3,0 1,0 3,0 3,0 1,0 1,0 1,0 0,0 1,0 1,1 0,0 0,0 0,1l0 11c1,-3 4,-6 6,-7 1,-1 4,-3 6,-4 1,-1 3,-1 4,-3 1,0 3,0 4,0 1,0 1,0 3,0 1,0 1,0 3,0 1,0 1,0 3,1 1,0 1,0 1,1 0,0 0,0 0,1 0,0 0,0 0,1 0,0 0,1 0,1 0,0 1,0 1,1z"/>
   <path class="fil0" d="M6803 6461c0,3 0,4 -1,4 -1,1 -3,1 -4,1l-49 0c0,4 0,8 1,11 1,3 3,6 4,8 1,3 4,4 7,6 3,1 7,1 11,1 4,0 7,0 10,-1 3,0 6,-1 7,-1 1,0 4,-1 6,-1 1,0 3,-1 3,-1 0,0 1,0 1,0 0,0 0,0 1,1 0,0 0,1 0,1 0,0 0,1 0,3 0,1 0,1 0,1 0,0 0,1 0,1 0,0 0,1 0,1 0,0 0,0 -1,1 0,0 -1,1 -3,1 -1,0 -3,1 -6,1 -3,0 -6,1 -8,1 -3,0 -7,1 -10,1 -6,0 -11,-1 -17,-3 -4,-1 -8,-4 -11,-7 -3,-3 -6,-7 -7,-13 -1,-6 -3,-11 -3,-18 0,-7 1,-13 3,-17 1,-4 4,-10 7,-13 3,-4 7,-7 11,-8 4,-1 10,-3 15,-3 6,0 11,1 15,3 4,1 7,4 10,7 3,3 4,7 6,11 1,4 1,8 1,14l0 3zm-14 -4c0,-7 -1,-13 -4,-17 -3,-4 -8,-6 -15,-6 -3,0 -7,0 -8,1 -3,1 -4,3 -7,6 -1,3 -3,4 -4,7 -1,3 -1,6 -1,8l40 0z"/>
   <path class="fil0" d="M6881 6503c0,0 0,1 0,1 0,0 -1,0 -1,1 0,1 -1,0 -3,0 -1,0 -3,0 -3,0 0,0 -1,0 -1,-1 0,0 0,-1 0,-1l0 -7c-3,4 -7,6 -11,8 -4,1 -8,3 -13,3 -4,0 -7,0 -11,-1 -3,-1 -6,-3 -8,-4 -3,-1 -4,-4 -6,-7 -1,-3 -1,-6 -1,-10 0,-4 1,-8 3,-11 1,-3 4,-6 7,-8 3,-3 7,-4 11,-4 4,-1 10,-1 15,-1l10 0 0 -6c0,-3 0,-6 -1,-7 0,-3 -1,-4 -3,-6 -1,-1 -3,-3 -6,-3 -3,-1 -4,-1 -8,-1 -3,0 -7,0 -10,1 -3,1 -6,1 -7,3 -1,1 -4,1 -6,3 -1,1 -3,1 -3,1 0,0 -1,0 -1,0 0,0 0,0 -1,-1 0,0 0,-1 0,-1 0,0 0,-1 0,-3 0,-1 0,-3 0,-3 0,0 0,-1 1,-3 1,-1 1,-1 4,-3 1,-1 4,-1 7,-3 3,-1 6,-1 8,-1 3,0 6,-1 8,-1 6,0 10,0 14,1 4,1 7,3 10,6 3,3 4,6 6,8 1,3 1,7 1,13l0 49 -1 0zm-14 -35l-11 0c-4,0 -7,0 -10,1 -3,0 -6,1 -7,3 -1,1 -3,3 -4,4 -1,1 -1,4 -1,6 0,4 1,7 4,10 3,3 6,3 10,3 4,0 7,-1 10,-3 3,-1 7,-4 10,-8l0 -15z"/>
   <path class="fil0" d="M6942 6498c0,1 0,3 0,4 0,1 0,1 -1,1 0,0 -1,1 -1,1 -1,0 -1,0 -3,1 -1,0 -3,0 -4,0 -1,0 -3,0 -4,0 -4,0 -7,0 -10,-1 -3,-1 -6,-3 -7,-4 -1,-1 -3,-4 -4,-8 -1,-4 -1,-7 -1,-11l0 -43 -11 0c-1,0 -1,0 -1,-1 0,-1 -1,-3 -1,-4 0,-1 0,-1 0,-3 0,-1 0,-1 0,-1 0,0 0,-1 1,-1 0,0 1,0 1,0l10 0 0 -18c0,0 0,-1 0,-1 0,0 0,0 1,-1 0,0 1,0 3,0 1,0 1,0 3,0 1,0 3,0 3,0 1,0 1,0 1,0 0,0 1,0 1,1 0,0 0,0 0,1l0 18 20 0c0,0 1,0 1,0 0,0 0,0 1,1 0,0 0,1 0,1 0,1 0,1 0,3 0,1 0,3 -1,4 0,1 -1,1 -1,1l-15 0 0 42c0,6 1,8 3,11 1,3 4,4 8,4 1,0 3,0 3,0 1,0 1,0 3,-1 1,0 1,0 1,-1 0,0 1,0 1,0 0,0 0,0 1,0 0,0 0,0 0,1 0,0 0,1 0,1 0,0 0,1 0,3z"/>
   <path class="fil0" d="M7023 6461c0,3 0,4 -1,4 -1,1 -3,1 -4,1l-49 0c0,4 0,8 1,11 1,3 3,6 4,8 1,3 4,4 7,6 3,1 7,1 11,1 4,0 7,0 10,-1 3,0 6,-1 7,-1 1,0 4,-1 6,-1 1,0 3,-1 3,-1 0,0 1,0 1,0 0,0 0,0 1,1 0,0 0,1 0,1 0,0 0,1 0,3 0,1 0,1 0,1 0,0 0,1 0,1 0,0 0,1 0,1 0,0 0,0 -1,1 0,0 -1,1 -3,1 -1,0 -3,1 -6,1 -3,0 -6,1 -8,1 -3,0 -7,1 -10,1 -6,0 -11,-1 -17,-3 -4,-1 -8,-4 -11,-7 -3,-3 -6,-7 -7,-13 -1,-6 -3,-11 -3,-18 0,-7 1,-13 3,-17 1,-4 4,-10 7,-13 3,-4 7,-7 11,-8 4,-1 10,-3 15,-3 6,0 11,1 15,3 4,1 7,4 10,7 3,3 4,7 6,11 1,4 1,8 1,14l0 3zm-14 -4c0,-7 -1,-13 -4,-17 -3,-4 -8,-6 -15,-6 -3,0 -7,0 -8,1 -3,1 -4,3 -7,6 -1,3 -3,4 -4,7 -1,3 -1,6 -1,8l40 0z"/>
   <path class="fil0" d="M7108 6502c0,1 0,1 0,0 0,1 -1,1 -1,1 0,0 -1,0 -1,0 -1,0 -1,0 -3,0 -1,0 -3,0 -3,0 -1,0 -1,0 -1,0 0,0 -1,0 -1,-1 0,0 0,-1 0,-1l0 -10c-4,4 -8,7 -13,10 -4,3 -8,4 -14,4 -6,0 -10,-1 -14,-3 -4,-3 -7,-6 -10,-8 -3,-4 -4,-8 -6,-13 -1,-6 -1,-10 -1,-15 0,-7 0,-13 1,-17 1,-6 3,-10 6,-14 3,-4 6,-7 10,-8 4,-1 8,-3 14,-3 4,0 8,1 13,3 4,1 7,4 11,8l0 -43c0,0 0,-1 0,-1 0,0 0,0 1,-1 0,0 1,0 3,0 1,0 1,0 3,0 1,0 3,0 3,0 1,0 1,0 1,0 0,0 1,0 1,1 0,1 0,1 0,1l0 110 1 0zm-14 -52c-4,-4 -7,-8 -11,-11 -3,-3 -7,-4 -11,-4 -4,0 -7,1 -8,3 -1,1 -4,4 -6,7 -1,3 -3,6 -3,10 0,4 -1,7 -1,11 0,4 0,7 1,11 0,4 1,7 3,10 1,3 3,6 6,7 3,1 6,3 8,3 1,0 4,0 6,-1 1,-1 3,-1 6,-3 1,-1 4,-3 6,-4 1,-1 4,-4 6,-7l0 -31z"/>
   <path class="fil0" d="M7240 6464c0,7 -1,13 -3,18 -1,6 -4,10 -6,14 -3,4 -6,7 -10,8 -4,1 -8,3 -14,3 -3,0 -4,0 -7,-1 -1,0 -4,-1 -6,-3 -1,-1 -4,-3 -6,-4 -1,-1 -4,-4 -6,-6l0 10c0,0 0,1 0,1 0,0 0,0 -1,1 0,0 -1,0 -1,0 -1,0 -1,0 -3,0 -1,0 -1,0 -3,0 -1,0 -1,0 -1,0 0,0 -1,0 -1,-1 0,0 0,-1 0,-1l0 -111c0,0 0,-1 0,-1 0,0 0,0 1,-1 0,0 1,0 3,0 1,0 1,0 3,0 1,0 3,0 3,0 0,0 1,0 1,0 0,0 1,0 1,1 0,0 0,1 0,1l0 45c3,-3 4,-4 7,-6 1,-1 4,-3 6,-4 1,-1 4,-1 6,-3 1,0 4,0 7,0 6,0 10,1 14,3 4,3 7,6 10,8 3,4 4,8 6,13 1,4 0,11 0,17zm-14 1c0,-4 0,-7 -1,-11 0,-4 -1,-7 -3,-10 -1,-3 -3,-6 -6,-7 -3,-1 -6,-3 -8,-3 -1,0 -4,0 -6,1 -1,0 -4,1 -6,3 -1,1 -4,3 -6,4 -1,1 -4,4 -6,7l0 29c4,4 7,8 11,11 3,3 7,4 11,4 3,0 7,-1 8,-3 1,-1 4,-4 6,-7 1,-3 3,-6 3,-10 0,-4 1,-6 1,-10z"/>
   <path class="fil0" d="M7293 6505l-10 28c0,1 -1,1 -3,1 -1,0 -3,0 -6,0 -1,0 -3,0 -4,0 -1,0 -1,0 -1,-1 0,0 -1,-1 -1,-1 0,0 0,-1 0,-1l10 -26c0,0 -1,0 -1,-1 0,0 -1,-1 -1,-1l-26 -71c0,-1 0,-1 0,-3 0,0 0,-1 0,-1 0,0 1,0 3,-1 1,-1 3,0 4,0 1,0 3,0 4,0 1,0 1,0 3,0 1,0 1,0 1,1 0,0 0,1 1,1l21 60 0 0 21 -60c0,-1 1,-1 1,-1 0,0 1,0 3,0 1,0 3,0 4,0 1,0 3,0 4,0 1,0 1,0 3,1 0,0 1,1 1,1 0,0 0,1 0,3l-31 74z"/>
   <path class="fil0" d="M7459 6449c0,10 -1,18 -4,24 -3,7 -6,13 -10,17 -4,4 -10,8 -17,10 -7,1 -14,3 -24,3l-22 0c-1,0 -3,0 -4,-1 -1,-1 -1,-3 -1,-4l0 -96c0,-3 0,-4 1,-4 1,-1 3,-1 4,-1l24 0c10,0 17,1 24,4 7,3 11,6 17,10 4,4 7,10 10,17 1,8 3,15 3,24zm-15 1c0,-6 -1,-11 -3,-17 -1,-6 -4,-10 -7,-13 -3,-4 -7,-7 -11,-8 -4,-1 -11,-3 -18,-3l-14 0 0 84 15 0c7,0 13,-1 17,-3 4,-1 8,-4 11,-8 3,-4 6,-8 7,-14 1,-6 3,-11 3,-18z"/>
   <path class="fil0" d="M7495 6403c0,3 0,6 -1,7 -1,1 -3,1 -7,1 -3,0 -6,0 -7,-1 -1,-1 -1,-3 -1,-7 0,-3 0,-6 1,-7 1,-1 3,-1 7,-1 3,0 6,0 7,1 0,1 1,3 1,7zm-1 99c0,1 0,1 0,0 0,1 -1,1 -1,1 0,0 -1,0 -1,0 -1,0 -1,0 -3,0 -1,0 -3,0 -3,0 -1,0 -1,0 -3,0 -1,0 -1,0 -1,-1 0,0 0,0 0,-1l0 -75c0,0 0,-1 0,-1 0,0 0,0 1,-1 1,-1 1,0 3,0 1,0 1,0 3,0 1,0 3,0 3,0 1,0 1,0 1,0 0,0 1,0 1,1 0,0 0,0 0,1l0 77z"/>
   <path class="fil0" d="M7582 6431c0,1 0,3 -1,4 0,1 -1,1 -1,1l-11 0c1,1 3,4 4,7 1,3 1,6 1,7 0,4 0,8 -1,11 -1,3 -3,6 -6,8 -3,3 -6,4 -10,6 -4,1 -7,1 -11,1 -3,0 -6,0 -8,-1 -3,-1 -4,-1 -7,-3 -1,1 -1,3 -3,3 0,1 -1,3 -1,4 0,1 1,4 3,4 1,1 4,1 7,1l20 1c4,0 7,0 10,1 3,1 6,3 8,4 3,1 4,4 6,6 1,3 1,6 1,8 0,3 -1,7 -3,10 -1,3 -4,6 -7,8 -3,3 -7,4 -11,6 -4,1 -10,1 -17,1 -6,0 -11,0 -15,-1 -4,-1 -8,-3 -10,-4 -3,-1 -4,-4 -6,-7 -1,-3 -1,-6 -1,-8 0,-1 0,-4 0,-6 0,-1 1,-3 1,-6 1,-1 1,-3 3,-4 1,-1 3,-3 4,-4 -3,-1 -4,-3 -6,-6 -1,-3 -1,-4 -1,-7 0,-3 0,-7 1,-8 1,-3 3,-6 6,-7 -1,-1 -3,-4 -4,-7 -1,-3 -1,-6 -1,-10 0,-4 1,-8 3,-11 1,-3 3,-6 6,-8 3,-3 6,-4 10,-6 4,-1 7,-1 11,-1 3,0 4,0 7,0 1,0 4,0 6,1l22 0c1,0 1,0 3,1 1,6 1,7 1,8zm-15 79c0,-3 -1,-6 -4,-7 -3,-1 -6,-3 -11,-3l-20 0c-1,1 -3,3 -4,4 -1,1 -1,3 -3,4 0,1 -1,3 -1,3 0,1 0,3 0,3 0,4 1,7 6,8 4,1 8,3 15,3 4,0 7,0 10,-1 3,-1 6,-1 7,-3 1,-1 3,-3 4,-4 1,-1 1,-6 1,-7zm-7 -60c0,-6 -1,-10 -4,-13 -3,-3 -7,-4 -13,-4 -3,0 -6,0 -7,1 -1,1 -4,3 -6,4 -1,1 -3,3 -3,6 0,1 -1,4 -1,7 0,6 1,8 4,11 3,3 7,4 11,4 3,0 6,0 7,-1 1,-1 4,-1 6,-4 1,-3 3,-3 3,-6 3,-1 3,-3 3,-6z"/>
   <path class="fil0" d="M7614 6403c0,3 0,6 -1,7 -1,1 -3,1 -7,1 -3,0 -6,0 -7,-1 -1,-1 -1,-3 -1,-7 0,-3 0,-6 1,-7 1,-1 3,-1 7,-1 3,0 6,0 7,1 1,1 1,3 1,7zm-1 99c0,1 0,1 0,0 0,1 -1,1 -1,1 0,0 -1,0 -1,0 -1,0 -1,0 -3,0 -1,0 -3,0 -3,0 -1,0 -1,0 -3,0 -1,0 -1,0 -1,-1 0,0 0,0 0,-1l0 -75c0,0 0,-1 0,-1 0,0 0,0 1,-1 1,-1 1,0 3,0 1,0 1,0 3,0 1,0 3,0 3,0 1,0 1,0 1,0 0,0 1,0 1,1 0,0 0,0 0,1l0 77z"/>
   <path class="fil0" d="M7677 6498c0,1 0,3 0,4 0,1 0,1 -1,1 0,0 -1,1 -1,1 -1,0 -1,0 -3,1 -1,0 -3,0 -4,0 -1,0 -3,0 -4,0 -4,0 -7,0 -10,-1 -3,-1 -6,-3 -7,-4 -1,-1 -3,-4 -4,-8 -1,-4 -1,-7 -1,-11l0 -43 -11 0c-1,0 -1,0 -1,-1 0,-1 -1,-3 -1,-4 0,-1 0,-1 0,-3 0,-1 0,-1 0,-1 0,0 0,-1 1,-1 0,0 1,0 1,0l10 0 0 -18c0,0 0,-1 0,-1 0,0 0,0 1,-1 0,0 1,0 3,0 1,0 1,0 3,0 1,0 3,0 3,0 1,0 1,0 1,0 0,0 1,0 1,1 0,0 0,0 0,1l0 18 20 0c0,0 1,0 1,0 0,0 0,0 1,1 0,0 0,1 0,1 0,1 0,1 0,3 0,1 0,3 -1,4 0,1 -1,1 -1,1l-20 0 0 42c0,6 1,8 3,11 1,3 4,4 8,4 1,0 3,0 3,0 1,0 1,0 3,-1 1,0 1,0 1,-1 0,0 1,0 1,0 0,0 0,0 1,0 0,0 0,0 0,1 0,0 0,1 0,1 0,0 4,1 4,3z"/>
   <path class="fil0" d="M7749 6503c0,0 0,1 0,1 0,0 -1,0 -1,1 0,1 -1,0 -3,0 -1,0 -3,0 -3,0 0,0 -1,0 -1,-1 0,0 0,-1 0,-1l0 -7c-3,4 -7,6 -11,8 -4,1 -8,3 -13,3 -4,0 -7,0 -11,-1 -3,-1 -6,-3 -8,-4 -3,-1 -4,-4 -6,-7 -1,-3 -1,-6 -1,-10 0,-4 1,-8 3,-11 1,-3 4,-6 7,-8 3,-3 7,-4 11,-4 4,-1 10,-1 15,-1l10 0 0 -6c0,-3 0,-6 -1,-7 0,-3 -1,-4 -3,-6 -1,-1 -3,-3 -6,-3 -3,-1 -4,-1 -8,-1 -3,0 -7,0 -10,1 -3,1 -6,1 -7,3 -1,1 -4,1 -6,3 -1,1 -3,1 -3,1 0,0 -1,0 -1,0 0,0 0,0 -1,-1 0,0 0,-1 0,-1 0,0 0,-1 0,-3 0,-1 0,-3 0,-3 0,0 0,-1 1,-3 1,-1 1,-1 4,-3 1,-1 4,-1 7,-3 3,-1 6,-1 8,-1 3,0 6,-1 8,-1 6,0 10,0 14,1 4,1 7,3 10,6 3,3 4,6 6,8 1,3 1,7 1,13l0 49 -1 0zm-14 -35l-11 0c-4,0 -7,0 -10,1 -3,0 -6,1 -7,3 -1,1 -3,3 -4,4 -1,1 -1,4 -1,6 0,4 1,7 4,10 3,3 6,3 10,3 4,0 7,-1 10,-3 3,-1 7,-4 10,-8l0 -15z"/>
   <path class="fil0" d="M7788 6502c0,1 0,1 0,0 0,1 -1,1 -1,1 0,0 -1,0 -1,0 -1,0 -1,0 -3,0 -1,0 -3,0 -3,0 -1,0 -1,0 -3,0 -1,0 -1,0 -1,-1 0,0 0,0 0,-1l0 -111c0,0 0,-1 0,-1 0,0 0,0 1,-1 0,0 1,0 3,0 1,0 1,0 3,0 1,0 3,0 3,0 0,0 1,0 1,0 0,0 1,0 1,1 0,0 0,1 0,1l0 113z"/>
   <path class="fil0" d="M7897 6502c0,0 0,1 -1,1 0,0 -1,0 -1,1 0,0 -1,0 -3,0 -1,0 -3,0 -4,0 -1,0 -3,0 -3,0 -1,0 -1,0 -3,0 0,0 -1,0 -1,0 0,0 -1,0 -1,0 0,0 0,0 -1,-1 0,0 0,0 0,-1l-35 -100c0,-1 0,-3 -1,-3 -1,0 0,-1 1,-1 0,0 1,0 3,-1 1,0 3,0 4,0 1,0 3,0 4,0 1,0 1,0 3,0 0,0 1,0 1,1 0,0 0,1 1,1l31 91 0 0 31 -91c0,0 0,-1 0,-1 0,0 0,0 1,-1 0,0 1,0 3,0 1,0 3,0 4,0 1,0 3,0 4,0 1,0 1,0 1,1 0,0 0,1 0,1 0,0 0,1 -1,3l-36 100z"/>
   <path class="fil0" d="M7964 6403c0,3 0,6 -1,7 -1,1 -3,1 -7,1 -3,0 -6,0 -7,-1 -1,-1 -1,-3 -1,-7 0,-3 0,-6 1,-7 1,-1 3,-1 7,-1 3,0 6,0 7,1 0,1 1,3 1,7zm-1 99c0,1 0,1 0,0 0,1 -1,1 -1,1 0,0 -1,0 -1,0 -1,0 -1,0 -3,0 -1,0 -3,0 -3,0 -1,0 -1,0 -3,0 -1,0 -1,0 -1,-1 0,0 0,0 0,-1l0 -75c0,0 0,-1 0,-1 0,0 0,0 1,-1 1,-1 1,0 3,0 1,0 1,0 3,0 1,0 3,0 3,0 1,0 1,0 1,0 0,0 1,0 1,1 0,0 0,0 0,1l0 77z"/>
   <path class="fil0" d="M8051 6502c0,1 0,1 0,0 0,1 -1,1 -1,1 0,0 -1,0 -1,0 -1,0 -1,0 -3,0 -1,0 -3,0 -3,0 -1,0 -1,0 -1,0 0,0 -1,0 -1,-1 0,0 0,-1 0,-1l0 -10c-4,4 -8,7 -13,10 -4,3 -8,4 -14,4 -6,0 -10,-1 -14,-3 -4,-3 -7,-6 -10,-8 -3,-4 -4,-8 -6,-13 -1,-6 -1,-10 -1,-15 0,-7 0,-13 1,-17 1,-6 3,-10 6,-14 3,-4 6,-7 10,-8 4,-1 8,-3 14,-3 4,0 8,1 13,3 4,1 7,4 11,8l0 -43c0,0 0,-1 0,-1 0,0 0,0 1,-1 0,0 1,0 3,0 1,0 1,0 3,0 1,0 3,0 3,0 1,0 1,0 1,0 0,0 1,0 1,1 0,1 0,1 0,1l0 110 1 0zm-14 -52c-4,-4 -7,-8 -11,-11 -3,-3 -7,-4 -11,-4 -4,0 -7,1 -8,3 -1,1 -4,4 -6,7 -1,3 -3,6 -3,10 0,4 -1,7 -1,11 0,4 0,7 1,11 0,4 1,7 3,10 1,3 3,6 6,7 3,1 6,3 8,3 1,0 4,0 6,-1 1,-1 3,-1 6,-3 1,-1 4,-3 6,-4 1,-1 4,-4 6,-7l0 -31z"/>
   <path class="fil0" d="M8141 6461c0,3 0,4 -1,4 -1,1 -3,1 -4,1l-49 0c0,4 0,8 1,11 1,3 3,6 4,8 1,3 4,4 7,6 3,1 7,1 11,1 4,0 7,0 10,-1 3,0 6,-1 7,-1 1,0 4,-1 6,-1 1,0 3,-1 3,-1 0,0 1,0 1,0 0,0 0,0 1,1 0,0 0,1 0,1 0,0 0,1 0,3 0,1 0,1 0,1 0,0 0,1 0,1 0,0 0,1 0,1 0,0 0,0 -1,1 0,0 -1,1 -3,1 -1,0 -3,1 -6,1 -3,0 -6,1 -8,1 -3,0 -7,1 -10,1 -6,0 -11,-1 -17,-3 -4,-1 -8,-4 -11,-7 -3,-3 -6,-7 -7,-13 -1,-6 -3,-11 -3,-18 0,-7 1,-13 3,-17 1,-4 4,-10 7,-13 3,-4 7,-7 11,-8 4,-1 10,-3 15,-3 6,0 11,1 15,3 4,1 7,4 10,7 3,3 4,7 6,11 1,4 1,8 1,14l0 3zm-14 -4c0,-7 -1,-13 -4,-17 -3,-4 -8,-6 -15,-6 -3,0 -7,0 -8,1 -3,1 -4,3 -7,6 -1,3 -3,4 -4,7 -1,3 -1,6 -1,8l40 0z"/>
   <path class="fil0" d="M8231 6464c0,6 -1,11 -3,17 -1,6 -4,10 -7,14 -3,4 -7,7 -13,8 -4,1 -10,3 -17,3 -6,0 -11,-1 -17,-3 -4,-1 -8,-4 -11,-8 -3,-4 -6,-8 -7,-13 -1,-4 -3,-11 -3,-17 0,-6 1,-11 3,-17 1,-6 4,-10 7,-14 3,-4 7,-7 13,-8 4,-1 10,-3 17,-3 6,0 11,1 17,3 4,1 8,4 11,8 3,4 6,8 7,13 1,4 3,11 3,17zm-15 1c0,-4 0,-8 -1,-11 -1,-4 -1,-7 -4,-10 -1,-3 -4,-4 -7,-7 -3,-1 -7,-3 -11,-3 -4,0 -7,1 -11,3 -3,1 -6,4 -7,6 -1,3 -3,6 -4,10 -1,4 -1,7 -1,11 0,4 0,8 1,11 1,4 1,7 4,10 1,3 4,4 7,7 3,1 7,3 11,3 4,0 7,-1 11,-3 3,-1 6,-3 7,-6 1,-3 3,-6 4,-10 1,-3 1,-7 1,-11z"/>
   <path class="fil0" d="M8348 6474c0,6 -1,10 -3,14 -1,4 -4,7 -8,10 -4,3 -7,4 -11,6 -4,1 -10,1 -14,1 -4,0 -7,0 -10,-1 -3,0 -6,-1 -8,-3 -3,-1 -4,-1 -6,-3 -1,-1 -3,-1 -3,-3 0,0 -1,-1 -1,-3 0,-1 0,-3 0,-4 0,-1 0,-3 0,-3 0,0 0,-1 0,-1 0,0 0,-1 1,-1 0,0 1,0 1,0 1,0 1,0 3,1 1,1 3,1 6,3 3,1 6,3 8,3 3,1 7,1 11,1 3,0 6,0 8,-1 3,-1 4,-1 7,-4 1,-1 3,-3 4,-6 1,-3 1,-4 1,-7 0,-3 0,-6 -1,-8 -1,-3 -3,-4 -6,-6 -3,-1 -4,-3 -8,-4 -3,-1 -6,-3 -8,-4 -3,-1 -6,-3 -8,-4 -3,-1 -6,-4 -8,-6 -3,-3 -4,-6 -6,-8 -1,-3 -3,-7 -3,-11 0,-4 1,-8 3,-13 1,-4 4,-7 7,-8 3,-3 7,-4 10,-6 4,-1 8,-1 13,-1 3,0 4,0 7,0 3,0 4,1 7,1 3,0 4,1 6,3 1,1 3,1 3,1 0,0 1,1 1,1 0,0 0,0 0,1 0,0 0,1 0,1 0,0 0,1 0,3 0,1 0,1 0,3 0,1 0,1 0,1 0,0 0,1 -1,1 0,0 0,0 -1,0 0,0 -1,0 -3,-1 -1,-1 -3,-1 -4,-3 -1,-1 -4,-1 -7,-3 -3,-1 -6,-1 -8,-1 -3,0 -6,0 -8,1 -3,1 -4,1 -6,3 -1,1 -3,3 -3,4 0,1 -1,4 -1,6 0,3 0,6 1,8 1,3 3,4 6,6 3,1 6,3 8,4 3,1 6,3 8,4 3,1 6,3 8,4 3,1 6,4 8,6 3,3 4,6 6,8 3,10 3,13 3,17z"/>
   <path class="fil0" d="M8384 6495c0,4 0,7 -1,8 -1,1 -4,1 -7,1 -3,0 -6,0 -7,-1 -1,-1 -1,-4 -1,-7 0,-4 0,-7 1,-8 1,-1 4,-1 7,-1 3,0 6,0 7,1 1,1 1,4 1,7z"/>
   <path class="fil0" d="M8478 6428c0,6 -1,10 -3,14 -1,4 -4,8 -7,11 -3,3 -7,6 -13,7 -4,1 -11,3 -17,3l-13 0 0 39c0,0 0,1 0,1 0,0 0,0 -1,1 0,0 -1,0 -3,0 -1,0 -1,0 -3,0 -1,0 -3,0 -3,0 0,0 -1,0 -3,0 -1,0 -1,0 -1,-1 0,0 0,-1 0,-1l0 -99c0,-3 0,-4 1,-4 1,-1 3,-1 4,-1l24 0c3,0 4,0 7,0 3,0 4,0 7,1 3,0 6,1 8,4 3,1 6,4 8,7 3,3 4,6 4,8 1,3 1,7 1,10zm-15 1c0,-4 -1,-8 -3,-11 -1,-3 -4,-6 -6,-7 -1,-1 -6,-3 -7,-3 -3,0 -6,0 -7,0l-14 0 0 43 13 0c4,0 8,0 11,-1 3,-1 6,-3 7,-4 1,-1 3,-4 4,-7 1,-3 1,-6 1,-10z"/>
   <path class="fil0" d="M8495 6495c0,4 0,7 -1,8 -1,1 -4,1 -7,1 -3,0 -6,0 -7,-1 -1,-1 -1,-4 -1,-7 0,-4 0,-7 1,-8 1,-1 4,-1 7,-1 3,0 6,0 7,1 0,1 1,4 1,7z"/>
   <path class="fil0" d="M8602 6499c0,1 0,3 1,3 0,1 0,1 0,1 0,0 -1,0 -3,1 -1,0 -3,0 -4,0 -1,0 -3,0 -4,0 -1,0 -1,0 -3,0 0,0 -1,0 -1,-1 0,0 0,-1 0,-1l-10 -26 -45 0 -8 26c0,0 0,1 0,1 0,0 0,0 -1,1 0,0 -1,0 -3,0 -1,0 -3,0 -4,0 -1,0 -3,0 -4,0 -1,0 -1,0 -3,-1 0,0 0,-1 0,-1 0,-1 0,-1 0,-3l36 -100c0,0 0,-1 1,-1 0,0 1,0 1,-1 0,0 1,0 3,0 1,0 3,0 4,0 1,0 3,0 4,0 1,0 3,0 3,0 1,0 1,0 1,1 0,0 0,1 1,1l36 100zm-46 -88l0 0 -18 54 38 0 -20 -54z"/>
   <path class="fil0" d="M8637 6495c0,4 0,7 -1,8 -1,1 -4,1 -7,1 -3,0 -6,0 -7,-1 -1,-1 -1,-4 -1,-7 0,-4 0,-7 1,-8 1,-1 4,-1 7,-1 3,0 6,0 7,1 1,1 1,4 1,7z"/>
   <path class="fil0" d="M8681 6492c0,1 0,3 0,4 0,1 0,3 -1,4 0,1 -1,3 -1,4 0,1 -1,3 -3,4l-11 17c0,0 0,1 -1,1 0,0 -1,0 -1,1 0,0 -1,0 -1,0 0,0 -1,0 -3,0 -1,0 -1,0 -3,0 0,0 -1,0 -1,0 0,0 0,0 0,-1 0,0 0,-1 0,-1l11 -22 0 -11c0,-1 0,-3 0,-4 0,-1 1,-1 1,-1 0,0 1,-1 3,-1 1,0 3,0 4,0 1,0 3,0 4,0 1,0 1,0 3,1 1,1 1,1 1,1 -1,3 0,3 0,4z"/>
   <path class="fil0" d="M8816 6502c0,1 0,1 0,0 0,1 -1,1 -1,1 0,0 -1,0 -3,0 -1,0 -3,0 -4,0 -1,0 -3,0 -4,0 -1,0 -1,0 -3,0 0,0 -1,0 -1,-1 0,0 0,-1 -1,-1l-10 -25c-1,-3 -3,-6 -4,-8 -1,-3 -3,-4 -4,-6 -1,-1 -4,-3 -6,-4 -1,-1 -6,-1 -8,-1l-10 0 0 46c0,0 0,1 0,1 0,0 0,0 -1,1 0,0 -1,0 -3,0 -1,0 -1,0 -3,0 -1,0 -3,0 -3,0 0,0 -1,0 -3,0 -1,0 -1,0 -1,-1 0,0 0,-1 0,-1l0 -99c0,-3 0,-4 1,-4 1,-1 3,-1 4,-1l22 0c3,0 6,0 7,0 1,0 3,0 4,0 4,1 8,1 11,3 3,1 6,4 8,6 3,3 4,6 4,8 1,3 1,7 1,10 0,4 0,7 -1,10 -1,3 -3,6 -4,7 -1,3 -4,4 -7,6 -3,1 -6,3 -8,4 1,1 3,1 4,3 1,1 3,3 4,4 1,1 3,4 4,6 1,3 3,4 3,7l10 24c1,1 1,3 1,4 0,1 4,4 4,4zm-21 -75c0,-4 -1,-8 -3,-11 -1,-3 -6,-6 -10,-7 -1,0 -3,0 -4,-1 -1,-1 -4,0 -7,0l-13 0 0 36 14 0c4,0 7,0 10,-1 3,-1 6,-3 7,-4 1,-1 3,-4 4,-6 0,0 1,-3 1,-6z"/>
   <path class="fil0" d="M8901 6464c0,6 -1,11 -3,17 -1,6 -4,10 -7,14 -3,4 -7,7 -13,8 -4,1 -10,3 -17,3 -6,0 -11,-1 -17,-3 -4,-1 -8,-4 -11,-8 -3,-4 -6,-8 -7,-13 -1,-4 -3,-11 -3,-17 0,-6 1,-11 3,-17 1,-6 4,-10 7,-14 3,-4 7,-7 13,-8 4,-1 10,-3 17,-3 6,0 11,1 17,3 4,1 8,4 11,8 3,4 6,8 7,13 1,4 3,11 3,17zm-14 1c0,-4 0,-8 -1,-11 -1,-4 -1,-7 -4,-10 -1,-3 -4,-4 -7,-7 -3,-1 -7,-3 -11,-3 -4,0 -7,1 -11,3 -3,1 -6,4 -7,6 -1,3 -3,6 -4,10 -1,4 -1,7 -1,11 0,4 0,8 1,11 1,4 1,7 4,10 1,3 4,4 7,7 3,1 7,3 11,3 4,0 7,-1 11,-3 3,-1 6,-3 7,-6 1,-3 3,-6 4,-10 1,-3 1,-7 1,-11z"/>
   <path class="fil0" d="M9032 6502c0,1 0,1 0,0 0,1 -1,1 -1,1 0,0 -1,0 -1,0 -1,0 -1,0 -3,0 -1,0 -3,0 -3,0 -1,0 -1,0 -3,0 -1,0 -1,0 -1,-1 0,0 0,0 0,-1l0 -46c0,-3 0,-6 -1,-8 0,-3 -1,-4 -3,-7 -1,-1 -3,-3 -4,-4 -1,-1 -4,-1 -7,-1 -3,0 -7,1 -10,4 -3,3 -7,6 -11,11l0 52c0,0 0,1 0,1 0,0 0,0 -1,1 0,0 -1,0 -3,0 -1,0 -1,0 -3,0 -1,0 -3,0 -3,0 -1,0 -1,0 -3,0 0,0 -1,0 -1,-1 0,-1 0,0 0,-1l0 -46c0,-3 0,-6 -1,-8 0,-3 -1,-4 -3,-7 -1,-1 -3,-3 -4,-4 -1,-1 -4,-1 -7,-1 -3,0 -7,1 -10,4 -3,3 -7,6 -11,11l0 52c0,0 0,1 0,1 0,0 0,0 -1,1 0,0 -1,0 -1,0 -1,0 -1,0 -3,0 -1,0 -3,0 -3,0 -1,0 -1,0 -3,0 -1,0 -1,0 -1,-1 0,0 0,0 0,-1l0 -75c0,0 0,-1 0,-1 0,0 0,0 1,-1 0,0 1,0 1,0 1,0 1,0 3,0 1,0 3,0 3,0 1,0 1,0 1,0 0,0 1,0 1,1 0,0 0,0 0,1l0 10c4,-4 8,-8 13,-10 4,-1 8,-3 13,-3 3,0 6,0 8,1 3,1 4,1 7,3 1,1 4,3 4,4 1,1 3,4 3,6 3,-3 4,-6 7,-7 3,-1 4,-3 7,-4 1,-1 4,-1 6,-3 1,0 4,-1 6,-1 4,0 8,1 13,3 3,1 6,4 8,7 1,3 3,6 4,10 1,4 1,8 1,13l0 49 1 0z"/>
   <path class="fil0" d="M9122 6461c0,3 0,4 -1,4 -1,1 -3,1 -4,1l-49 0c0,4 0,8 1,11 1,3 3,6 4,8 1,3 4,4 7,6 3,1 7,1 11,1 4,0 7,0 10,-1 3,0 6,-1 7,-1 1,0 4,-1 6,-1 1,0 3,-1 3,-1 0,0 1,0 1,0 0,0 0,0 1,1 0,0 0,1 0,1 0,0 0,1 0,3 0,1 0,1 0,1 0,0 0,1 0,1 0,0 0,1 0,1 0,0 0,0 -1,1 0,0 -1,1 -3,1 -1,0 -3,1 -6,1 -3,0 -6,1 -8,1 -3,0 -7,1 -10,1 -6,0 -11,-1 -17,-3 -4,-1 -8,-4 -11,-7 -3,-3 -6,-7 -7,-13 -1,-6 -3,-11 -3,-18 0,-7 1,-13 3,-17 1,-4 4,-10 7,-13 3,-4 7,-7 11,-8 4,-1 10,-3 15,-3 6,0 11,1 15,3 4,1 7,4 10,7 3,3 4,7 6,11 1,4 1,8 1,14l0 3zm-14 -4c0,-7 -1,-13 -4,-17 -3,-4 -8,-6 -15,-6 -3,0 -7,0 -8,1 -3,1 -4,3 -7,6 -1,3 -3,4 -4,7 -1,3 -1,6 -1,8l40 0z"/>
   <path class="fil0" d="M9197 6502c0,1 0,1 0,0 0,1 -1,1 -1,1 0,0 -1,0 -3,0 -1,0 -1,0 -3,0 -1,0 -3,0 -3,0 0,0 -1,0 -3,0 -1,0 -1,0 -1,-1 0,0 0,-1 0,-1l0 -103c0,0 0,-1 0,-1 0,0 0,0 1,-1 1,-1 1,0 3,0 1,0 1,0 3,0 1,0 3,0 3,0 0,0 1,0 3,0 0,0 1,0 1,1 0,0 0,1 0,1l0 105z"/>
   <path class="fil0" d="M9262 6498c0,1 0,3 0,4 0,1 0,1 -1,1 0,0 -1,1 -1,1 -1,0 -1,0 -3,1 -1,0 -3,0 -4,0 -1,0 -3,0 -4,0 -4,0 -7,0 -10,-1 -3,-1 -6,-3 -7,-4 -1,-1 -3,-4 -4,-8 -1,-4 -1,-7 -1,-11l0 -43 -11 0c-1,0 -1,0 -1,-1 0,-1 -1,-3 -1,-4 0,-1 0,-1 0,-3 0,-1 0,-1 0,-1 0,0 0,-1 1,-1 0,0 1,0 1,0l10 0 0 -18c0,0 0,-1 0,-1 0,0 0,0 1,-1 0,0 1,0 3,0 1,0 1,0 3,0 1,0 3,0 3,0 1,0 1,0 1,0 0,0 1,0 1,1 0,0 0,0 0,1l0 18 20 0c0,0 1,0 1,0 0,0 0,0 1,1 0,0 0,1 0,1 0,1 0,1 0,3 0,1 0,3 -1,4 0,1 -1,1 -1,1l-20 0 0 42c0,6 1,8 3,11 1,3 4,4 8,4 1,0 3,0 3,0 1,0 1,0 3,-1 1,0 1,0 1,-1 0,0 1,0 1,0 0,0 0,0 1,0 0,0 0,0 0,1 0,0 0,1 0,1 0,0 4,1 4,3z"/>
   <path class="fil0" d="M9335 6503c0,0 0,1 0,1 0,0 -1,0 -1,1 0,1 -1,0 -3,0 -1,0 -3,0 -3,0 0,0 -1,0 -1,-1 0,0 0,-1 0,-1l0 -7c-3,4 -7,6 -11,8 -4,1 -8,3 -13,3 -4,0 -7,0 -11,-1 -3,-1 -6,-3 -8,-4 -3,-1 -4,-4 -6,-7 -1,-3 -1,-6 -1,-10 0,-4 1,-8 3,-11 1,-3 4,-6 7,-8 3,-3 7,-4 11,-4 4,-1 10,-1 15,-1l10 0 0 -6c0,-3 0,-6 -1,-7 0,-3 -1,-4 -3,-6 -1,-1 -3,-3 -6,-3 -3,-1 -4,-1 -8,-1 -3,0 -7,0 -10,1 -3,1 -6,1 -7,3 -1,1 -4,1 -6,3 -1,1 -3,1 -3,1 0,0 -1,0 -1,0 0,0 0,0 -1,-1 0,0 0,-1 0,-1 0,0 0,-1 0,-3 0,-1 0,-3 0,-3 0,0 0,-1 1,-3 1,-1 1,-1 4,-3 1,-1 4,-1 7,-3 3,-1 6,-1 8,-1 3,0 6,-1 8,-1 6,0 10,0 14,1 4,1 7,3 10,6 3,3 4,6 6,8 1,3 1,7 1,13l0 49 -1 0zm-14 -35l-11 0c-4,0 -7,0 -10,1 -3,0 -6,1 -7,3 -1,1 -3,3 -4,4 -1,1 -1,4 -1,6 0,4 1,7 4,10 3,3 6,3 10,3 4,0 7,-1 10,-3 3,-1 7,-4 10,-8l0 -15z"/>
   <path class="fil0" d="M9374 6502c0,1 0,1 0,0 0,1 -1,1 -1,1 0,0 -1,0 -1,0 -1,0 -1,0 -3,0 -1,0 -3,0 -3,0 -1,0 -1,0 -3,0 -1,0 -1,0 -1,-1 0,0 0,0 0,-1l0 -111c0,0 0,-1 0,-1 0,0 0,0 1,-1 0,0 1,0 3,0 1,0 1,0 3,0 1,0 3,0 3,0 0,0 1,0 1,0 0,0 1,0 1,1 0,0 0,1 0,1l0 113z"/>
   <path class="fil0" d="M9432 6505l-10 28c0,1 -1,1 -3,1 -1,0 -3,0 -6,0 -1,0 -3,0 -4,0 -1,0 -1,0 -1,-1 0,0 -1,-1 -1,-1 0,0 0,-1 0,-1l10 -26c0,0 -1,0 -1,-1 0,0 -1,-1 -1,-1l-26 -71c0,-1 0,-1 0,-3 0,0 0,-1 0,-1 0,0 1,0 3,-1 1,-1 3,0 4,0 1,0 3,0 4,0 1,0 1,0 3,0 1,0 1,0 1,1 0,0 0,1 1,1l21 60 0 0 21 -60c0,-1 1,-1 1,-1 0,0 1,0 3,0 1,0 3,0 4,0 1,0 3,0 4,0 1,0 1,0 3,1 0,0 1,1 1,1 0,0 0,1 0,3l-31 74z"/>
  </g>
 </g>
</svg>
